<?xml version="1.0" encoding="UTF-8" standalone="no"?>
<!DOCTYPE svg PUBLIC "-//W3C//DTD SVG 1.1//EN"
 "http://www.w3.org/Graphics/SVG/1.1/DTD/svg11.dtd">
<!-- Generated by graphviz version 2.46.0 (20210118.1747)
 -->
<!-- Title: G Pages: 1 -->
<svg width="3201pt" height="1036pt"
 viewBox="0.00 0.00 3201.20 1036.20" xmlns="http://www.w3.org/2000/svg" xmlns:xlink="http://www.w3.org/1999/xlink">
<g id="graph0" class="graph" transform="scale(1 1) rotate(0) translate(21.6 1014.6)">
<title>G</title>
<polygon fill="#111111" stroke="transparent" points="-21.6,21.6 -21.6,-1014.6 3179.6,-1014.6 3179.6,21.6 -21.6,21.6"/>
<!-- App.js -->
<g id="node1" class="node">
<title>App.js</title>
<path fill="none" stroke="#c6c5fe" d="M150.33,-671C150.33,-671 108.67,-671 108.67,-671 104.83,-671 101,-667.17 101,-663.33 101,-663.33 101,-655.67 101,-655.67 101,-651.83 104.83,-648 108.67,-648 108.67,-648 150.33,-648 150.33,-648 154.17,-648 158,-651.83 158,-655.67 158,-655.67 158,-663.33 158,-663.33 158,-667.17 154.17,-671 150.33,-671"/>
<text text-anchor="middle" x="129.5" y="-655.8" font-family="Arial" font-size="14.00" fill="#c6c5fe">App.js</text>
</g>
<!-- App.module.css -->
<g id="node2" class="node">
<title>App.module.css</title>
<path fill="none" stroke="#cfffac" d="M386.83,-712C386.83,-712 282.17,-712 282.17,-712 278.33,-712 274.5,-708.17 274.5,-704.33 274.5,-704.33 274.5,-696.67 274.5,-696.67 274.5,-692.83 278.33,-689 282.17,-689 282.17,-689 386.83,-689 386.83,-689 390.67,-689 394.5,-692.83 394.5,-696.67 394.5,-696.67 394.5,-704.33 394.5,-704.33 394.5,-708.17 390.67,-712 386.83,-712"/>
<text text-anchor="middle" x="334.5" y="-696.8" font-family="Arial" font-size="14.00" fill="#cfffac">App.module.css</text>
</g>
<!-- App.js&#45;&gt;App.module.css -->
<g id="edge1" class="edge">
<title>App.js&#45;&gt;App.module.css</title>
<path fill="none" stroke="#757575" d="M158.06,-669.21C169.12,-672.84 182.06,-676.74 194,-679.5 216.66,-684.74 241.7,-688.98 264.24,-692.25"/>
<polygon fill="#757575" stroke="#757575" points="264.01,-695.75 274.4,-693.68 264.99,-688.82 264.01,-695.75"/>
</g>
<!-- Redux/app_reducer.js -->
<g id="node3" class="node">
<title>Redux/app_reducer.js</title>
<path fill="none" stroke="#c6c5fe" d="M748.33,-993C748.33,-993 606.67,-993 606.67,-993 602.83,-993 599,-989.17 599,-985.33 599,-985.33 599,-977.67 599,-977.67 599,-973.83 602.83,-970 606.67,-970 606.67,-970 748.33,-970 748.33,-970 752.17,-970 756,-973.83 756,-977.67 756,-977.67 756,-985.33 756,-985.33 756,-989.17 752.17,-993 748.33,-993"/>
<text text-anchor="middle" x="677.5" y="-977.8" font-family="Arial" font-size="14.00" fill="#c6c5fe">Redux/app_reducer.js</text>
</g>
<!-- App.js&#45;&gt;Redux/app_reducer.js -->
<g id="edge2" class="edge">
<title>App.js&#45;&gt;Redux/app_reducer.js</title>
<path fill="none" stroke="#757575" d="M130.01,-671.07C129.12,-708.04 131.61,-824.36 194,-884.5 299.63,-986.32 480.64,-995.19 588.38,-989.99"/>
<polygon fill="#757575" stroke="#757575" points="588.77,-993.48 598.57,-989.45 588.4,-986.49 588.77,-993.48"/>
</g>
<!-- components/Dialogs/DialogsContainer.jsx -->
<g id="node4" class="node">
<title>components/Dialogs/DialogsContainer.jsx</title>
<path fill="none" stroke="#c6c5fe" d="M467.33,-508C467.33,-508 201.67,-508 201.67,-508 197.83,-508 194,-504.17 194,-500.33 194,-500.33 194,-492.67 194,-492.67 194,-488.83 197.83,-485 201.67,-485 201.67,-485 467.33,-485 467.33,-485 471.17,-485 475,-488.83 475,-492.67 475,-492.67 475,-500.33 475,-500.33 475,-504.17 471.17,-508 467.33,-508"/>
<text text-anchor="middle" x="334.5" y="-492.8" font-family="Arial" font-size="14.00" fill="#c6c5fe">components/Dialogs/DialogsContainer.jsx</text>
</g>
<!-- App.js&#45;&gt;components/Dialogs/DialogsContainer.jsx -->
<g id="edge3" class="edge">
<title>App.js&#45;&gt;components/Dialogs/DialogsContainer.jsx</title>
<path fill="none" stroke="#757575" d="M132.32,-647.83C137.11,-621.18 152.71,-555.72 194,-523.5 199.55,-519.17 205.6,-515.46 211.97,-512.31"/>
<polygon fill="#757575" stroke="#757575" points="213.8,-515.32 221.5,-508.06 210.95,-508.93 213.8,-515.32"/>
</g>
<!-- components/Header/HeaderContainer.jsx -->
<g id="node5" class="node">
<title>components/Header/HeaderContainer.jsx</title>
<path fill="none" stroke="#c6c5fe" d="M465.83,-876C465.83,-876 203.17,-876 203.17,-876 199.33,-876 195.5,-872.17 195.5,-868.33 195.5,-868.33 195.5,-860.67 195.5,-860.67 195.5,-856.83 199.33,-853 203.17,-853 203.17,-853 465.83,-853 465.83,-853 469.67,-853 473.5,-856.83 473.5,-860.67 473.5,-860.67 473.5,-868.33 473.5,-868.33 473.5,-872.17 469.67,-876 465.83,-876"/>
<text text-anchor="middle" x="334.5" y="-860.8" font-family="Arial" font-size="14.00" fill="#c6c5fe">components/Header/HeaderContainer.jsx</text>
</g>
<!-- App.js&#45;&gt;components/Header/HeaderContainer.jsx -->
<g id="edge4" class="edge">
<title>App.js&#45;&gt;components/Header/HeaderContainer.jsx</title>
<path fill="none" stroke="#757575" d="M130.65,-671.26C131.74,-704.27 139.71,-798.33 194,-843.5 195.62,-844.85 197.3,-846.13 199.01,-847.35"/>
<polygon fill="#757575" stroke="#757575" points="197.6,-850.6 207.94,-852.93 201.31,-844.66 197.6,-850.6"/>
</g>
<!-- components/Login/LoginContainer.jsx -->
<g id="node6" class="node">
<title>components/Login/LoginContainer.jsx</title>
<path fill="none" stroke="#c6c5fe" d="M454.33,-630C454.33,-630 214.67,-630 214.67,-630 210.83,-630 207,-626.17 207,-622.33 207,-622.33 207,-614.67 207,-614.67 207,-610.83 210.83,-607 214.67,-607 214.67,-607 454.33,-607 454.33,-607 458.17,-607 462,-610.83 462,-614.67 462,-614.67 462,-622.33 462,-622.33 462,-626.17 458.17,-630 454.33,-630"/>
<text text-anchor="middle" x="334.5" y="-614.8" font-family="Arial" font-size="14.00" fill="#c6c5fe">components/Login/LoginContainer.jsx</text>
</g>
<!-- App.js&#45;&gt;components/Login/LoginContainer.jsx -->
<g id="edge5" class="edge">
<title>App.js&#45;&gt;components/Login/LoginContainer.jsx</title>
<path fill="none" stroke="#757575" d="M158.01,-649.22C169.07,-645.4 182.02,-641.32 194,-638.5 204.68,-635.99 215.91,-633.74 227.15,-631.75"/>
<polygon fill="#757575" stroke="#757575" points="227.76,-635.19 237.03,-630.06 226.58,-628.29 227.76,-635.19"/>
</g>
<!-- components/Music/Music.jsx -->
<g id="node7" class="node">
<title>components/Music/Music.jsx</title>
<path fill="none" stroke="#cfffac" d="M425.33,-794C425.33,-794 243.67,-794 243.67,-794 239.83,-794 236,-790.17 236,-786.33 236,-786.33 236,-778.67 236,-778.67 236,-774.83 239.83,-771 243.67,-771 243.67,-771 425.33,-771 425.33,-771 429.17,-771 433,-774.83 433,-778.67 433,-778.67 433,-786.33 433,-786.33 433,-790.17 429.17,-794 425.33,-794"/>
<text text-anchor="middle" x="334.5" y="-778.8" font-family="Arial" font-size="14.00" fill="#cfffac">components/Music/Music.jsx</text>
</g>
<!-- App.js&#45;&gt;components/Music/Music.jsx -->
<g id="edge6" class="edge">
<title>App.js&#45;&gt;components/Music/Music.jsx</title>
<path fill="none" stroke="#757575" d="M134.15,-671.31C141.55,-693.12 160.54,-739.49 194,-761.5 203.65,-767.85 214.49,-772.57 225.74,-776.05"/>
<polygon fill="#757575" stroke="#757575" points="225.14,-779.52 235.72,-778.8 227,-772.77 225.14,-779.52"/>
</g>
<!-- components/NavBar/NavBarContainer.jsx -->
<g id="node8" class="node">
<title>components/NavBar/NavBarContainer.jsx</title>
<path fill="none" stroke="#c6c5fe" d="M464.83,-260C464.83,-260 204.17,-260 204.17,-260 200.33,-260 196.5,-256.17 196.5,-252.33 196.5,-252.33 196.5,-244.67 196.5,-244.67 196.5,-240.83 200.33,-237 204.17,-237 204.17,-237 464.83,-237 464.83,-237 468.67,-237 472.5,-240.83 472.5,-244.67 472.5,-244.67 472.5,-252.33 472.5,-252.33 472.5,-256.17 468.67,-260 464.83,-260"/>
<text text-anchor="middle" x="334.5" y="-244.8" font-family="Arial" font-size="14.00" fill="#c6c5fe">components/NavBar/NavBarContainer.jsx</text>
</g>
<!-- App.js&#45;&gt;components/NavBar/NavBarContainer.jsx -->
<g id="edge7" class="edge">
<title>App.js&#45;&gt;components/NavBar/NavBarContainer.jsx</title>
<path fill="none" stroke="#757575" d="M131.69,-647.92C135.78,-611.73 151.44,-498.21 194,-415.5 225.42,-354.45 282.54,-295.9 313.03,-267.09"/>
<polygon fill="#757575" stroke="#757575" points="315.61,-269.47 320.53,-260.09 310.83,-264.35 315.61,-269.47"/>
</g>
<!-- components/News/News.jsx -->
<g id="node9" class="node">
<title>components/News/News.jsx</title>
<path fill="none" stroke="#cfffac" d="M423.83,-753C423.83,-753 245.17,-753 245.17,-753 241.33,-753 237.5,-749.17 237.5,-745.33 237.5,-745.33 237.5,-737.67 237.5,-737.67 237.5,-733.83 241.33,-730 245.17,-730 245.17,-730 423.83,-730 423.83,-730 427.67,-730 431.5,-733.83 431.5,-737.67 431.5,-737.67 431.5,-745.33 431.5,-745.33 431.5,-749.17 427.67,-753 423.83,-753"/>
<text text-anchor="middle" x="334.5" y="-737.8" font-family="Arial" font-size="14.00" fill="#cfffac">components/News/News.jsx</text>
</g>
<!-- App.js&#45;&gt;components/News/News.jsx -->
<g id="edge8" class="edge">
<title>App.js&#45;&gt;components/News/News.jsx</title>
<path fill="none" stroke="#757575" d="M138.9,-671.14C149.85,-685.34 170.41,-708.89 194,-720.5 204.47,-725.65 215.88,-729.62 227.51,-732.65"/>
<polygon fill="#757575" stroke="#757575" points="226.78,-736.08 237.32,-734.99 228.4,-729.27 226.78,-736.08"/>
</g>
<!-- components/Profile/ProfileContainer.jsx -->
<g id="node10" class="node">
<title>components/Profile/ProfileContainer.jsx</title>
<path fill="none" stroke="#c6c5fe" d="M460.33,-589C460.33,-589 208.67,-589 208.67,-589 204.83,-589 201,-585.17 201,-581.33 201,-581.33 201,-573.67 201,-573.67 201,-569.83 204.83,-566 208.67,-566 208.67,-566 460.33,-566 460.33,-566 464.17,-566 468,-569.83 468,-573.67 468,-573.67 468,-581.33 468,-581.33 468,-585.17 464.17,-589 460.33,-589"/>
<text text-anchor="middle" x="334.5" y="-573.8" font-family="Arial" font-size="14.00" fill="#c6c5fe">components/Profile/ProfileContainer.jsx</text>
</g>
<!-- App.js&#45;&gt;components/Profile/ProfileContainer.jsx -->
<g id="edge9" class="edge">
<title>App.js&#45;&gt;components/Profile/ProfileContainer.jsx</title>
<path fill="none" stroke="#757575" d="M138.66,-647.89C149.5,-633.46 170.09,-609.28 194,-597.5 197.77,-595.64 201.65,-593.95 205.63,-592.4"/>
<polygon fill="#757575" stroke="#757575" points="206.81,-595.69 215.05,-589.04 204.45,-589.1 206.81,-595.69"/>
</g>
<!-- components/Settings/Settings.jsx -->
<g id="node11" class="node">
<title>components/Settings/Settings.jsx</title>
<path fill="none" stroke="#cfffac" d="M440.33,-671C440.33,-671 228.67,-671 228.67,-671 224.83,-671 221,-667.17 221,-663.33 221,-663.33 221,-655.67 221,-655.67 221,-651.83 224.83,-648 228.67,-648 228.67,-648 440.33,-648 440.33,-648 444.17,-648 448,-651.83 448,-655.67 448,-655.67 448,-663.33 448,-663.33 448,-667.17 444.17,-671 440.33,-671"/>
<text text-anchor="middle" x="334.5" y="-655.8" font-family="Arial" font-size="14.00" fill="#cfffac">components/Settings/Settings.jsx</text>
</g>
<!-- App.js&#45;&gt;components/Settings/Settings.jsx -->
<g id="edge10" class="edge">
<title>App.js&#45;&gt;components/Settings/Settings.jsx</title>
<path fill="none" stroke="#757575" d="M158.3,-659.5C172.61,-659.5 191.15,-659.5 210.8,-659.5"/>
<polygon fill="#757575" stroke="#757575" points="210.84,-663 220.84,-659.5 210.84,-656 210.84,-663"/>
</g>
<!-- components/Users/UsersContainer.jsx -->
<g id="node12" class="node">
<title>components/Users/UsersContainer.jsx</title>
<path fill="none" stroke="#c6c5fe" d="M456.83,-448C456.83,-448 212.17,-448 212.17,-448 208.33,-448 204.5,-444.17 204.5,-440.33 204.5,-440.33 204.5,-432.67 204.5,-432.67 204.5,-428.83 208.33,-425 212.17,-425 212.17,-425 456.83,-425 456.83,-425 460.67,-425 464.5,-428.83 464.5,-432.67 464.5,-432.67 464.5,-440.33 464.5,-440.33 464.5,-444.17 460.67,-448 456.83,-448"/>
<text text-anchor="middle" x="334.5" y="-432.8" font-family="Arial" font-size="14.00" fill="#c6c5fe">components/Users/UsersContainer.jsx</text>
</g>
<!-- App.js&#45;&gt;components/Users/UsersContainer.jsx -->
<g id="edge11" class="edge">
<title>App.js&#45;&gt;components/Users/UsersContainer.jsx</title>
<path fill="none" stroke="#757575" d="M130.96,-647.6C132.89,-615.04 142.84,-523.7 194,-475.5 205.26,-464.89 219.17,-457.13 233.8,-451.46"/>
<polygon fill="#757575" stroke="#757575" points="235.23,-454.66 243.49,-448.02 232.9,-448.06 235.23,-454.66"/>
</g>
<!-- components/common/Preloader/Preloader.jsx -->
<g id="node13" class="node">
<title>components/common/Preloader/Preloader.jsx</title>
<path fill="none" stroke="#c6c5fe" d="M823.83,-549C823.83,-549 531.17,-549 531.17,-549 527.33,-549 523.5,-545.17 523.5,-541.33 523.5,-541.33 523.5,-533.67 523.5,-533.67 523.5,-529.83 527.33,-526 531.17,-526 531.17,-526 823.83,-526 823.83,-526 827.67,-526 831.5,-529.83 831.5,-533.67 831.5,-533.67 831.5,-541.33 831.5,-541.33 831.5,-545.17 827.67,-549 823.83,-549"/>
<text text-anchor="middle" x="677.5" y="-533.8" font-family="Arial" font-size="14.00" fill="#c6c5fe">components/common/Preloader/Preloader.jsx</text>
</g>
<!-- App.js&#45;&gt;components/common/Preloader/Preloader.jsx -->
<g id="edge12" class="edge">
<title>App.js&#45;&gt;components/common/Preloader/Preloader.jsx</title>
<path fill="none" stroke="#757575" d="M133.68,-647.92C140.49,-625.61 158.81,-577.06 194,-556.5 246.53,-525.8 394.59,-523.81 512.98,-527.84"/>
<polygon fill="#757575" stroke="#757575" points="513.13,-531.34 523.25,-528.2 513.38,-524.35 513.13,-531.34"/>
</g>
<!-- api/api.js -->
<g id="node14" class="node">
<title>api/api.js</title>
<path fill="none" stroke="#cfffac" d="M2005.33,-823C2005.33,-823 1948.67,-823 1948.67,-823 1944.83,-823 1941,-819.17 1941,-815.33 1941,-815.33 1941,-807.67 1941,-807.67 1941,-803.83 1944.83,-800 1948.67,-800 1948.67,-800 2005.33,-800 2005.33,-800 2009.17,-800 2013,-803.83 2013,-807.67 2013,-807.67 2013,-815.33 2013,-815.33 2013,-819.17 2009.17,-823 2005.33,-823"/>
<text text-anchor="middle" x="1977" y="-807.8" font-family="Arial" font-size="14.00" fill="#cfffac">api/api.js</text>
</g>
<!-- Redux/app_reducer.js&#45;&gt;api/api.js -->
<g id="edge13" class="edge">
<title>Redux/app_reducer.js&#45;&gt;api/api.js</title>
<path fill="none" stroke="#757575" d="M756.09,-985.23C869.15,-989.52 1085.58,-993.42 1268,-971.5 1522.49,-940.92 1819.52,-857.93 1930.84,-825.11"/>
<polygon fill="#757575" stroke="#757575" points="1932.13,-828.39 1940.72,-822.19 1930.14,-821.67 1932.13,-828.39"/>
</g>
<!-- Redux/messageReducer.js -->
<g id="node17" class="node">
<title>Redux/messageReducer.js</title>
<path fill="none" stroke="#cfffac" d="M764.83,-727C764.83,-727 590.17,-727 590.17,-727 586.33,-727 582.5,-723.17 582.5,-719.33 582.5,-719.33 582.5,-711.67 582.5,-711.67 582.5,-707.83 586.33,-704 590.17,-704 590.17,-704 764.83,-704 764.83,-704 768.67,-704 772.5,-707.83 772.5,-711.67 772.5,-711.67 772.5,-719.33 772.5,-719.33 772.5,-723.17 768.67,-727 764.83,-727"/>
<text text-anchor="middle" x="677.5" y="-711.8" font-family="Arial" font-size="14.00" fill="#cfffac">Redux/messageReducer.js</text>
</g>
<!-- components/Dialogs/DialogsContainer.jsx&#45;&gt;Redux/messageReducer.js -->
<g id="edge34" class="edge">
<title>components/Dialogs/DialogsContainer.jsx&#45;&gt;Redux/messageReducer.js</title>
<path fill="none" stroke="#757575" d="M391.18,-508.02C420.03,-516.73 453.61,-531.61 475,-556.5 516.31,-604.57 463.38,-652.66 511,-694.5 527.96,-709.4 549.94,-717.18 572.31,-720.78"/>
<polygon fill="#757575" stroke="#757575" points="571.88,-724.26 582.25,-722.12 572.81,-717.32 571.88,-724.26"/>
</g>
<!-- components/Dialogs/Dialogs.jsx -->
<g id="node31" class="node">
<title>components/Dialogs/Dialogs.jsx</title>
<path fill="none" stroke="#c6c5fe" d="M1176.33,-336C1176.33,-336 971.67,-336 971.67,-336 967.83,-336 964,-332.17 964,-328.33 964,-328.33 964,-320.67 964,-320.67 964,-316.83 967.83,-313 971.67,-313 971.67,-313 1176.33,-313 1176.33,-313 1180.17,-313 1184,-316.83 1184,-320.67 1184,-320.67 1184,-328.33 1184,-328.33 1184,-332.17 1180.17,-336 1176.33,-336"/>
<text text-anchor="middle" x="1074" y="-320.8" font-family="Arial" font-size="14.00" fill="#c6c5fe">components/Dialogs/Dialogs.jsx</text>
</g>
<!-- components/Dialogs/DialogsContainer.jsx&#45;&gt;components/Dialogs/Dialogs.jsx -->
<g id="edge35" class="edge">
<title>components/Dialogs/DialogsContainer.jsx&#45;&gt;components/Dialogs/Dialogs.jsx</title>
<path fill="none" stroke="#757575" d="M431.59,-484.96C457.38,-481.87 485.25,-478.55 511,-475.5 584.99,-466.74 779.96,-474.57 844,-436.5 867.85,-422.32 857.6,-401.87 880,-385.5 912.03,-362.09 953.34,-347.47 989.52,-338.43"/>
<polygon fill="#757575" stroke="#757575" points="990.66,-341.76 999.57,-336.03 989.03,-334.95 990.66,-341.76"/>
</g>
<!-- components/HOC/withAuthRedirect.js -->
<g id="node33" class="node">
<title>components/HOC/withAuthRedirect.js</title>
<path fill="none" stroke="#cfffac" d="M797.33,-508C797.33,-508 557.67,-508 557.67,-508 553.83,-508 550,-504.17 550,-500.33 550,-500.33 550,-492.67 550,-492.67 550,-488.83 553.83,-485 557.67,-485 557.67,-485 797.33,-485 797.33,-485 801.17,-485 805,-488.83 805,-492.67 805,-492.67 805,-500.33 805,-500.33 805,-504.17 801.17,-508 797.33,-508"/>
<text text-anchor="middle" x="677.5" y="-492.8" font-family="Arial" font-size="14.00" fill="#cfffac">components/HOC/withAuthRedirect.js</text>
</g>
<!-- components/Dialogs/DialogsContainer.jsx&#45;&gt;components/HOC/withAuthRedirect.js -->
<g id="edge36" class="edge">
<title>components/Dialogs/DialogsContainer.jsx&#45;&gt;components/HOC/withAuthRedirect.js</title>
<path fill="none" stroke="#757575" d="M475.18,-496.5C496.54,-496.5 518.56,-496.5 539.85,-496.5"/>
<polygon fill="#757575" stroke="#757575" points="539.91,-500 549.91,-496.5 539.91,-493 539.91,-500"/>
</g>
<!-- Redux/auth_reducer.js -->
<g id="node15" class="node">
<title>Redux/auth_reducer.js</title>
<path fill="none" stroke="#c6c5fe" d="M749.33,-825C749.33,-825 605.67,-825 605.67,-825 601.83,-825 598,-821.17 598,-817.33 598,-817.33 598,-809.67 598,-809.67 598,-805.83 601.83,-802 605.67,-802 605.67,-802 749.33,-802 749.33,-802 753.17,-802 757,-805.83 757,-809.67 757,-809.67 757,-817.33 757,-817.33 757,-821.17 753.17,-825 749.33,-825"/>
<text text-anchor="middle" x="677.5" y="-809.8" font-family="Arial" font-size="14.00" fill="#c6c5fe">Redux/auth_reducer.js</text>
</g>
<!-- components/Header/HeaderContainer.jsx&#45;&gt;Redux/auth_reducer.js -->
<g id="edge39" class="edge">
<title>components/Header/HeaderContainer.jsx&#45;&gt;Redux/auth_reducer.js</title>
<path fill="none" stroke="#757575" d="M412.45,-852.99C465.06,-845.12 534.89,-834.68 589.52,-826.51"/>
<polygon fill="#757575" stroke="#757575" points="590.16,-829.95 599.53,-825.01 589.13,-823.03 590.16,-829.95"/>
</g>
<!-- components/Header/Header.jsx -->
<g id="node34" class="node">
<title>components/Header/Header.jsx</title>
<path fill="none" stroke="#c6c5fe" d="M778.33,-952C778.33,-952 576.67,-952 576.67,-952 572.83,-952 569,-948.17 569,-944.33 569,-944.33 569,-936.67 569,-936.67 569,-932.83 572.83,-929 576.67,-929 576.67,-929 778.33,-929 778.33,-929 782.17,-929 786,-932.83 786,-936.67 786,-936.67 786,-944.33 786,-944.33 786,-948.17 782.17,-952 778.33,-952"/>
<text text-anchor="middle" x="677.5" y="-936.8" font-family="Arial" font-size="14.00" fill="#c6c5fe">components/Header/Header.jsx</text>
</g>
<!-- components/Header/HeaderContainer.jsx&#45;&gt;components/Header/Header.jsx -->
<g id="edge40" class="edge">
<title>components/Header/HeaderContainer.jsx&#45;&gt;components/Header/Header.jsx</title>
<path fill="none" stroke="#757575" d="M366.43,-876.03C401.15,-888.54 459.37,-908.23 511,-919.5 526.35,-922.85 542.62,-925.72 558.74,-928.17"/>
<polygon fill="#757575" stroke="#757575" points="558.35,-931.65 568.75,-929.64 559.36,-924.73 558.35,-931.65"/>
</g>
<!-- components/Login/LoginContainer.jsx&#45;&gt;Redux/auth_reducer.js -->
<g id="edge41" class="edge">
<title>components/Login/LoginContainer.jsx&#45;&gt;Redux/auth_reducer.js</title>
<path fill="none" stroke="#757575" d="M462.28,-629.34C466.79,-631.99 471.05,-635.02 475,-638.5 520.29,-678.43 468.13,-726.98 511,-769.5 531.4,-789.73 559.98,-800.96 587.66,-807.09"/>
<polygon fill="#757575" stroke="#757575" points="587.3,-810.59 597.8,-809.13 588.68,-803.73 587.3,-810.59"/>
</g>
<!-- components/Login/LoginForm/LoginForm.jsx -->
<g id="node37" class="node">
<title>components/Login/LoginForm/LoginForm.jsx</title>
<path fill="none" stroke="#c6c5fe" d="M2119.83,-684C2119.83,-684 1834.17,-684 1834.17,-684 1830.33,-684 1826.5,-680.17 1826.5,-676.33 1826.5,-676.33 1826.5,-668.67 1826.5,-668.67 1826.5,-664.83 1830.33,-661 1834.17,-661 1834.17,-661 2119.83,-661 2119.83,-661 2123.67,-661 2127.5,-664.83 2127.5,-668.67 2127.5,-668.67 2127.5,-676.33 2127.5,-676.33 2127.5,-680.17 2123.67,-684 2119.83,-684"/>
<text text-anchor="middle" x="1977" y="-668.8" font-family="Arial" font-size="14.00" fill="#c6c5fe">components/Login/LoginForm/LoginForm.jsx</text>
</g>
<!-- components/Login/LoginContainer.jsx&#45;&gt;components/Login/LoginForm/LoginForm.jsx -->
<g id="edge42" class="edge">
<title>components/Login/LoginContainer.jsx&#45;&gt;components/Login/LoginForm/LoginForm.jsx</title>
<path fill="none" stroke="#757575" d="M462.24,-623.83C565.31,-628.97 714.37,-638.27 844,-653.5 860.11,-655.39 863.86,-657.91 880,-659.5 1211.6,-692.07 1602.31,-686.17 1816.15,-679.18"/>
<polygon fill="#757575" stroke="#757575" points="1816.32,-682.68 1826.2,-678.85 1816.09,-675.68 1816.32,-682.68"/>
</g>
<!-- components/NavBar/NavBar.jsx -->
<g id="node44" class="node">
<title>components/NavBar/NavBar.jsx</title>
<path fill="none" stroke="#c6c5fe" d="M777.33,-104C777.33,-104 577.67,-104 577.67,-104 573.83,-104 570,-100.17 570,-96.33 570,-96.33 570,-88.67 570,-88.67 570,-84.83 573.83,-81 577.67,-81 577.67,-81 777.33,-81 777.33,-81 781.17,-81 785,-84.83 785,-88.67 785,-88.67 785,-96.33 785,-96.33 785,-100.17 781.17,-104 777.33,-104"/>
<text text-anchor="middle" x="677.5" y="-88.8" font-family="Arial" font-size="14.00" fill="#c6c5fe">components/NavBar/NavBar.jsx</text>
</g>
<!-- components/NavBar/NavBarContainer.jsx&#45;&gt;components/NavBar/NavBar.jsx -->
<g id="edge53" class="edge">
<title>components/NavBar/NavBarContainer.jsx&#45;&gt;components/NavBar/NavBar.jsx</title>
<path fill="none" stroke="#757575" d="M360.85,-236.9C421.15,-209.32 573.17,-139.77 641.86,-108.35"/>
<polygon fill="#757575" stroke="#757575" points="643.34,-111.52 650.98,-104.17 640.43,-105.15 643.34,-111.52"/>
</g>
<!-- components/Profile/ProfileContainer.jsx&#45;&gt;components/common/Preloader/Preloader.jsx -->
<g id="edge79" class="edge">
<title>components/Profile/ProfileContainer.jsx&#45;&gt;components/common/Preloader/Preloader.jsx</title>
<path fill="none" stroke="#757575" d="M433.67,-565.98C475.84,-561.04 525.25,-555.24 568.45,-550.17"/>
<polygon fill="#757575" stroke="#757575" points="568.9,-553.65 578.43,-549 568.09,-546.69 568.9,-553.65"/>
</g>
<!-- components/Profile/ProfileContainer.jsx&#45;&gt;Redux/auth_reducer.js -->
<g id="edge75" class="edge">
<title>components/Profile/ProfileContainer.jsx&#45;&gt;Redux/auth_reducer.js</title>
<path fill="none" stroke="#757575" d="M464.09,-589.01C467.95,-591.5 471.61,-594.32 475,-597.5 531.96,-650.93 457.27,-712.82 511,-769.5 531.03,-790.64 559.97,-802.04 588.05,-808.06"/>
<polygon fill="#757575" stroke="#757575" points="587.45,-811.51 597.94,-809.98 588.79,-804.64 587.45,-811.51"/>
</g>
<!-- Redux/profileReducer.js -->
<g id="node16" class="node">
<title>Redux/profileReducer.js</title>
<path fill="none" stroke="#c6c5fe" d="M1581.33,-803C1581.33,-803 1426.67,-803 1426.67,-803 1422.83,-803 1419,-799.17 1419,-795.33 1419,-795.33 1419,-787.67 1419,-787.67 1419,-783.83 1422.83,-780 1426.67,-780 1426.67,-780 1581.33,-780 1581.33,-780 1585.17,-780 1589,-783.83 1589,-787.67 1589,-787.67 1589,-795.33 1589,-795.33 1589,-799.17 1585.17,-803 1581.33,-803"/>
<text text-anchor="middle" x="1504" y="-787.8" font-family="Arial" font-size="14.00" fill="#c6c5fe">Redux/profileReducer.js</text>
</g>
<!-- components/Profile/ProfileContainer.jsx&#45;&gt;Redux/profileReducer.js -->
<g id="edge76" class="edge">
<title>components/Profile/ProfileContainer.jsx&#45;&gt;Redux/profileReducer.js</title>
<path fill="none" stroke="#757575" d="M463.58,-589.03C467.62,-591.51 471.44,-594.32 475,-597.5 522.28,-639.72 461.95,-695.35 511,-735.5 579.39,-791.49 1174.1,-793.72 1408.56,-792.39"/>
<polygon fill="#757575" stroke="#757575" points="1408.79,-795.89 1418.77,-792.32 1408.75,-788.89 1408.79,-795.89"/>
</g>
<!-- components/Profile/ProfileContainer.jsx&#45;&gt;components/HOC/withAuthRedirect.js -->
<g id="edge77" class="edge">
<title>components/Profile/ProfileContainer.jsx&#45;&gt;components/HOC/withAuthRedirect.js</title>
<path fill="none" stroke="#757575" d="M362.92,-565.9C397.01,-551.97 457.26,-528.93 511,-516.5 522.23,-513.9 533.98,-511.63 545.81,-509.64"/>
<polygon fill="#757575" stroke="#757575" points="546.44,-513.08 555.75,-508.03 545.32,-506.17 546.44,-513.08"/>
</g>
<!-- components/Profile/Profile.jsx -->
<g id="node63" class="node">
<title>components/Profile/Profile.jsx</title>
<path fill="none" stroke="#c6c5fe" d="M772.83,-590C772.83,-590 582.17,-590 582.17,-590 578.33,-590 574.5,-586.17 574.5,-582.33 574.5,-582.33 574.5,-574.67 574.5,-574.67 574.5,-570.83 578.33,-567 582.17,-567 582.17,-567 772.83,-567 772.83,-567 776.67,-567 780.5,-570.83 780.5,-574.67 780.5,-574.67 780.5,-582.33 780.5,-582.33 780.5,-586.17 776.67,-590 772.83,-590"/>
<text text-anchor="middle" x="677.5" y="-574.8" font-family="Arial" font-size="14.00" fill="#c6c5fe">components/Profile/Profile.jsx</text>
</g>
<!-- components/Profile/ProfileContainer.jsx&#45;&gt;components/Profile/Profile.jsx -->
<g id="edge78" class="edge">
<title>components/Profile/ProfileContainer.jsx&#45;&gt;components/Profile/Profile.jsx</title>
<path fill="none" stroke="#757575" d="M468.32,-577.89C499.99,-577.98 533.48,-578.08 564.13,-578.17"/>
<polygon fill="#757575" stroke="#757575" points="564.4,-581.67 574.41,-578.2 564.42,-574.67 564.4,-581.67"/>
</g>
<!-- components/Users/UsersContainer.jsx&#45;&gt;components/common/Preloader/Preloader.jsx -->
<g id="edge93" class="edge">
<title>components/Users/UsersContainer.jsx&#45;&gt;components/common/Preloader/Preloader.jsx</title>
<path fill="none" stroke="#757575" d="M406.56,-448.01C429.58,-453.86 454.46,-462.58 475,-475.5 495.53,-488.41 489.58,-505.13 511,-516.5 514.99,-518.62 519.11,-520.56 523.33,-522.33"/>
<polygon fill="#757575" stroke="#757575" points="522.12,-525.62 532.71,-525.96 524.65,-519.09 522.12,-525.62"/>
</g>
<!-- Redux/userReducer.js -->
<g id="node20" class="node">
<title>Redux/userReducer.js</title>
<path fill="none" stroke="#c6c5fe" d="M748.83,-686C748.83,-686 606.17,-686 606.17,-686 602.33,-686 598.5,-682.17 598.5,-678.33 598.5,-678.33 598.5,-670.67 598.5,-670.67 598.5,-666.83 602.33,-663 606.17,-663 606.17,-663 748.83,-663 748.83,-663 752.67,-663 756.5,-666.83 756.5,-670.67 756.5,-670.67 756.5,-678.33 756.5,-678.33 756.5,-682.17 752.67,-686 748.83,-686"/>
<text text-anchor="middle" x="677.5" y="-670.8" font-family="Arial" font-size="14.00" fill="#c6c5fe">Redux/userReducer.js</text>
</g>
<!-- components/Users/UsersContainer.jsx&#45;&gt;Redux/userReducer.js -->
<g id="edge87" class="edge">
<title>components/Users/UsersContainer.jsx&#45;&gt;Redux/userReducer.js</title>
<path fill="none" stroke="#757575" d="M427.42,-448.02C444.99,-453.88 461.94,-462.6 475,-475.5 515.52,-515.53 473.76,-555.4 511,-598.5 537.83,-629.55 580,-648.66 615.05,-659.94"/>
<polygon fill="#757575" stroke="#757575" points="614.15,-663.32 624.73,-662.92 616.21,-656.63 614.15,-663.32"/>
</g>
<!-- Redux/usersSelectors.js -->
<g id="node21" class="node">
<title>Redux/usersSelectors.js</title>
<path fill="none" stroke="#cfffac" d="M755.83,-346C755.83,-346 599.17,-346 599.17,-346 595.33,-346 591.5,-342.17 591.5,-338.33 591.5,-338.33 591.5,-330.67 591.5,-330.67 591.5,-326.83 595.33,-323 599.17,-323 599.17,-323 755.83,-323 755.83,-323 759.67,-323 763.5,-326.83 763.5,-330.67 763.5,-330.67 763.5,-338.33 763.5,-338.33 763.5,-342.17 759.67,-346 755.83,-346"/>
<text text-anchor="middle" x="677.5" y="-330.8" font-family="Arial" font-size="14.00" fill="#cfffac">Redux/usersSelectors.js</text>
</g>
<!-- components/Users/UsersContainer.jsx&#45;&gt;Redux/usersSelectors.js -->
<g id="edge88" class="edge">
<title>components/Users/UsersContainer.jsx&#45;&gt;Redux/usersSelectors.js</title>
<path fill="none" stroke="#757575" d="M354.96,-424.88C386.52,-406.63 451.35,-371.57 511,-354.5 533.3,-348.12 557.86,-343.77 581.07,-340.81"/>
<polygon fill="#757575" stroke="#757575" points="581.77,-344.26 591.28,-339.59 580.93,-337.31 581.77,-344.26"/>
</g>
<!-- components/Users/UsersContainer.jsx&#45;&gt;components/HOC/withAuthRedirect.js -->
<g id="edge89" class="edge">
<title>components/Users/UsersContainer.jsx&#45;&gt;components/HOC/withAuthRedirect.js</title>
<path fill="none" stroke="#757575" d="M401.25,-448.07C458.33,-458.11 540.99,-472.66 600.81,-483.18"/>
<polygon fill="#757575" stroke="#757575" points="600.5,-486.68 610.95,-484.97 601.71,-479.79 600.5,-486.68"/>
</g>
<!-- components/Users/PageNumber/PageNumber.jsx -->
<g id="node68" class="node">
<title>components/Users/PageNumber/PageNumber.jsx</title>
<path fill="none" stroke="#c6c5fe" d="M836.33,-235C836.33,-235 518.67,-235 518.67,-235 514.83,-235 511,-231.17 511,-227.33 511,-227.33 511,-219.67 511,-219.67 511,-215.83 514.83,-212 518.67,-212 518.67,-212 836.33,-212 836.33,-212 840.17,-212 844,-215.83 844,-219.67 844,-219.67 844,-227.33 844,-227.33 844,-231.17 840.17,-235 836.33,-235"/>
<text text-anchor="middle" x="677.5" y="-219.8" font-family="Arial" font-size="14.00" fill="#c6c5fe">components/Users/PageNumber/PageNumber.jsx</text>
</g>
<!-- components/Users/UsersContainer.jsx&#45;&gt;components/Users/PageNumber/PageNumber.jsx -->
<g id="edge90" class="edge">
<title>components/Users/UsersContainer.jsx&#45;&gt;components/Users/PageNumber/PageNumber.jsx</title>
<path fill="none" stroke="#757575" d="M351.06,-424.69C381.21,-402.02 449.96,-351.32 511,-313.5 556.11,-285.55 610.52,-256.88 644.32,-239.63"/>
<polygon fill="#757575" stroke="#757575" points="645.95,-242.72 653.28,-235.07 642.78,-236.48 645.95,-242.72"/>
</g>
<!-- components/Users/User/User.jsx -->
<g id="node70" class="node">
<title>components/Users/User/User.jsx</title>
<path fill="none" stroke="#c6c5fe" d="M782.33,-428C782.33,-428 572.67,-428 572.67,-428 568.83,-428 565,-424.17 565,-420.33 565,-420.33 565,-412.67 565,-412.67 565,-408.83 568.83,-405 572.67,-405 572.67,-405 782.33,-405 782.33,-405 786.17,-405 790,-408.83 790,-412.67 790,-412.67 790,-420.33 790,-420.33 790,-424.17 786.17,-428 782.33,-428"/>
<text text-anchor="middle" x="677.5" y="-412.8" font-family="Arial" font-size="14.00" fill="#c6c5fe">components/Users/User/User.jsx</text>
</g>
<!-- components/Users/UsersContainer.jsx&#45;&gt;components/Users/User/User.jsx -->
<g id="edge91" class="edge">
<title>components/Users/UsersContainer.jsx&#45;&gt;components/Users/User/User.jsx</title>
<path fill="none" stroke="#757575" d="M464.9,-428.91C494.31,-427.19 525.46,-425.36 554.55,-423.65"/>
<polygon fill="#757575" stroke="#757575" points="554.97,-427.13 564.74,-423.05 554.56,-420.15 554.97,-427.13"/>
</g>
<!-- components/Users/UsersContainer.module.css -->
<g id="node72" class="node">
<title>components/Users/UsersContainer.module.css</title>
<path fill="none" stroke="#cfffac" d="M827.83,-387C827.83,-387 527.17,-387 527.17,-387 523.33,-387 519.5,-383.17 519.5,-379.33 519.5,-379.33 519.5,-371.67 519.5,-371.67 519.5,-367.83 523.33,-364 527.17,-364 527.17,-364 827.83,-364 827.83,-364 831.67,-364 835.5,-367.83 835.5,-371.67 835.5,-371.67 835.5,-379.33 835.5,-379.33 835.5,-383.17 831.67,-387 827.83,-387"/>
<text text-anchor="middle" x="677.5" y="-371.8" font-family="Arial" font-size="14.00" fill="#cfffac">components/Users/UsersContainer.module.css</text>
</g>
<!-- components/Users/UsersContainer.jsx&#45;&gt;components/Users/UsersContainer.module.css -->
<g id="edge92" class="edge">
<title>components/Users/UsersContainer.jsx&#45;&gt;components/Users/UsersContainer.module.css</title>
<path fill="none" stroke="#757575" d="M378.86,-424.98C414.21,-415.92 465.55,-403.53 511,-395.5 525.73,-392.9 541.26,-390.53 556.66,-388.41"/>
<polygon fill="#757575" stroke="#757575" points="557.31,-391.85 566.75,-387.05 556.37,-384.92 557.31,-391.85"/>
</g>
<!-- components/common/Preloader/preloader.module.css -->
<g id="node74" class="node">
<title>components/common/Preloader/preloader.module.css</title>
<path fill="none" stroke="#cfffac" d="M1247.33,-459C1247.33,-459 900.67,-459 900.67,-459 896.83,-459 893,-455.17 893,-451.33 893,-451.33 893,-443.67 893,-443.67 893,-439.83 896.83,-436 900.67,-436 900.67,-436 1247.33,-436 1247.33,-436 1251.17,-436 1255,-439.83 1255,-443.67 1255,-443.67 1255,-451.33 1255,-451.33 1255,-455.17 1251.17,-459 1247.33,-459"/>
<text text-anchor="middle" x="1074" y="-443.8" font-family="Arial" font-size="14.00" fill="#cfffac">components/common/Preloader/preloader.module.css</text>
</g>
<!-- components/common/Preloader/Preloader.jsx&#45;&gt;components/common/Preloader/preloader.module.css -->
<g id="edge95" class="edge">
<title>components/common/Preloader/Preloader.jsx&#45;&gt;components/common/Preloader/preloader.module.css</title>
<path fill="none" stroke="#757575" d="M824.74,-525.87C831.42,-523.2 837.88,-520.1 844,-516.5 867.29,-502.8 856.55,-480.93 880,-467.5 882.6,-466.01 885.26,-464.6 887.96,-463.26"/>
<polygon fill="#757575" stroke="#757575" points="889.66,-466.33 897.31,-459.01 886.76,-459.96 889.66,-466.33"/>
</g>
<!-- resources/loaders/Bean Eater.gif -->
<g id="node75" class="node">
<title>resources/loaders/Bean Eater.gif</title>
<path fill="none" stroke="#cfffac" d="M1178.83,-418C1178.83,-418 969.17,-418 969.17,-418 965.33,-418 961.5,-414.17 961.5,-410.33 961.5,-410.33 961.5,-402.67 961.5,-402.67 961.5,-398.83 965.33,-395 969.17,-395 969.17,-395 1178.83,-395 1178.83,-395 1182.67,-395 1186.5,-398.83 1186.5,-402.67 1186.5,-402.67 1186.5,-410.33 1186.5,-410.33 1186.5,-414.17 1182.67,-418 1178.83,-418"/>
<text text-anchor="middle" x="1074" y="-402.8" font-family="Arial" font-size="14.00" fill="#cfffac">resources/loaders/Bean Eater.gif</text>
</g>
<!-- components/common/Preloader/Preloader.jsx&#45;&gt;resources/loaders/Bean Eater.gif -->
<g id="edge96" class="edge">
<title>components/common/Preloader/Preloader.jsx&#45;&gt;resources/loaders/Bean Eater.gif</title>
<path fill="none" stroke="#757575" d="M829.44,-525.9C834.54,-523.16 839.42,-520.04 844,-516.5 878.08,-490.15 845.62,-452.46 880,-426.5 900.41,-411.09 925.69,-403.06 951.15,-399.39"/>
<polygon fill="#757575" stroke="#757575" points="951.79,-402.84 961.29,-398.15 950.94,-395.89 951.79,-402.84"/>
</g>
<!-- Redux/auth_reducer.js&#45;&gt;api/api.js -->
<g id="edge15" class="edge">
<title>Redux/auth_reducer.js&#45;&gt;api/api.js</title>
<path fill="none" stroke="#757575" d="M757.44,-815.43C794.63,-816.25 839.59,-817.1 880,-817.5 1287.86,-821.55 1781.12,-814.61 1930.81,-812.25"/>
<polygon fill="#757575" stroke="#757575" points="1931.04,-815.74 1940.98,-812.08 1930.93,-808.74 1931.04,-815.74"/>
</g>
<!-- Redux/auth_reducer.js&#45;&gt;Redux/profileReducer.js -->
<g id="edge14" class="edge">
<title>Redux/auth_reducer.js&#45;&gt;Redux/profileReducer.js</title>
<path fill="none" stroke="#757575" d="M757.18,-811.4C909.66,-807.33 1244.79,-798.39 1408.81,-794.01"/>
<polygon fill="#757575" stroke="#757575" points="1408.99,-797.51 1418.89,-793.74 1408.8,-790.51 1408.99,-797.51"/>
</g>
<!-- Redux/profileReducer.js&#45;&gt;api/api.js -->
<g id="edge16" class="edge">
<title>Redux/profileReducer.js&#45;&gt;api/api.js</title>
<path fill="none" stroke="#757575" d="M1589.21,-795.08C1689.11,-799.32 1852,-806.23 1930.66,-809.57"/>
<polygon fill="#757575" stroke="#757575" points="1930.59,-813.07 1940.73,-810 1930.89,-806.08 1930.59,-813.07"/>
</g>
<!-- Redux/redux&#45;store.js -->
<g id="node18" class="node">
<title>Redux/redux&#45;store.js</title>
<path fill="none" stroke="#c6c5fe" d="M400.83,-835C400.83,-835 268.17,-835 268.17,-835 264.33,-835 260.5,-831.17 260.5,-827.33 260.5,-827.33 260.5,-819.67 260.5,-819.67 260.5,-815.83 264.33,-812 268.17,-812 268.17,-812 400.83,-812 400.83,-812 404.67,-812 408.5,-815.83 408.5,-819.67 408.5,-819.67 408.5,-827.33 408.5,-827.33 408.5,-831.17 404.67,-835 400.83,-835"/>
<text text-anchor="middle" x="334.5" y="-819.8" font-family="Arial" font-size="14.00" fill="#c6c5fe">Redux/redux&#45;store.js</text>
</g>
<!-- Redux/redux&#45;store.js&#45;&gt;Redux/app_reducer.js -->
<g id="edge17" class="edge">
<title>Redux/redux&#45;store.js&#45;&gt;Redux/app_reducer.js</title>
<path fill="none" stroke="#757575" d="M408.52,-819.12C432.08,-821.31 456.79,-827.9 475,-843.5 516.63,-879.18 468.97,-926.28 511,-961.5 532.44,-979.46 561.27,-986.71 588.86,-988.78"/>
<polygon fill="#757575" stroke="#757575" points="588.78,-992.28 598.96,-989.32 589.16,-985.29 588.78,-992.28"/>
</g>
<!-- Redux/redux&#45;store.js&#45;&gt;Redux/auth_reducer.js -->
<g id="edge18" class="edge">
<title>Redux/redux&#45;store.js&#45;&gt;Redux/auth_reducer.js</title>
<path fill="none" stroke="#757575" d="M408.65,-821.35C461.07,-819.82 531.94,-817.74 587.61,-816.11"/>
<polygon fill="#757575" stroke="#757575" points="587.93,-819.6 597.83,-815.81 587.73,-812.6 587.93,-819.6"/>
</g>
<!-- Redux/redux&#45;store.js&#45;&gt;Redux/profileReducer.js -->
<g id="edge20" class="edge">
<title>Redux/redux&#45;store.js&#45;&gt;Redux/profileReducer.js</title>
<path fill="none" stroke="#757575" d="M408.89,-828.62C440.32,-830.56 477.44,-832.54 511,-833.5 847.38,-843.08 932.4,-842.36 1268,-817.5 1314.42,-814.06 1365.84,-808.57 1408.7,-803.51"/>
<polygon fill="#757575" stroke="#757575" points="1409.33,-806.96 1418.84,-802.31 1408.5,-800.01 1409.33,-806.96"/>
</g>
<!-- Redux/redux&#45;store.js&#45;&gt;Redux/messageReducer.js -->
<g id="edge19" class="edge">
<title>Redux/redux&#45;store.js&#45;&gt;Redux/messageReducer.js</title>
<path fill="none" stroke="#757575" d="M408.66,-816.11C430.27,-812.95 453.81,-808.56 475,-802.5 537.82,-784.54 606.89,-751.61 645.65,-731.82"/>
<polygon fill="#757575" stroke="#757575" points="647.54,-734.78 654.83,-727.09 644.33,-728.56 647.54,-734.78"/>
</g>
<!-- Redux/sideBarReducer.js -->
<g id="node19" class="node">
<title>Redux/sideBarReducer.js</title>
<path fill="none" stroke="#cfffac" d="M759.33,-911C759.33,-911 595.67,-911 595.67,-911 591.83,-911 588,-907.17 588,-903.33 588,-903.33 588,-895.67 588,-895.67 588,-891.83 591.83,-888 595.67,-888 595.67,-888 759.33,-888 759.33,-888 763.17,-888 767,-891.83 767,-895.67 767,-895.67 767,-903.33 767,-903.33 767,-907.17 763.17,-911 759.33,-911"/>
<text text-anchor="middle" x="677.5" y="-895.8" font-family="Arial" font-size="14.00" fill="#cfffac">Redux/sideBarReducer.js</text>
</g>
<!-- Redux/redux&#45;store.js&#45;&gt;Redux/sideBarReducer.js -->
<g id="edge21" class="edge">
<title>Redux/redux&#45;store.js&#45;&gt;Redux/sideBarReducer.js</title>
<path fill="none" stroke="#757575" d="M408.58,-826.34C430.63,-829.19 454.43,-834.35 475,-843.5 494.03,-851.97 492.03,-864.91 511,-873.5 531.66,-882.86 555.08,-888.92 577.67,-892.84"/>
<polygon fill="#757575" stroke="#757575" points="577.2,-896.31 587.63,-894.44 578.31,-889.4 577.2,-896.31"/>
</g>
<!-- Redux/redux&#45;store.js&#45;&gt;Redux/userReducer.js -->
<g id="edge22" class="edge">
<title>Redux/redux&#45;store.js&#45;&gt;Redux/userReducer.js</title>
<path fill="none" stroke="#757575" d="M408.69,-826.99C432.13,-824.58 456.72,-817.87 475,-802.5 513.72,-769.93 471.81,-726.5 511,-694.5 532.46,-676.98 561.02,-669.76 588.37,-667.6"/>
<polygon fill="#757575" stroke="#757575" points="588.59,-671.09 598.37,-667.02 588.18,-664.1 588.59,-671.09"/>
</g>
<!-- Redux/userReducer.js&#45;&gt;api/api.js -->
<g id="edge23" class="edge">
<title>Redux/userReducer.js&#45;&gt;api/api.js</title>
<path fill="none" stroke="#757575" d="M756.97,-681.91C794.24,-685.43 839.42,-689.69 880,-693.5 1246.21,-727.88 1338.89,-725.96 1704,-770.5 1784.16,-780.28 1877.1,-795.03 1930.96,-803.91"/>
<polygon fill="#757575" stroke="#757575" points="1930.44,-807.38 1940.88,-805.56 1931.58,-800.47 1930.44,-807.38"/>
</g>
<!-- components/Dialogs/Dialog/Dialog.jsx -->
<g id="node22" class="node">
<title>components/Dialogs/Dialog/Dialog.jsx</title>
<path fill="none" stroke="#c6c5fe" d="M1624.83,-256C1624.83,-256 1383.17,-256 1383.17,-256 1379.33,-256 1375.5,-252.17 1375.5,-248.33 1375.5,-248.33 1375.5,-240.67 1375.5,-240.67 1375.5,-236.83 1379.33,-233 1383.17,-233 1383.17,-233 1624.83,-233 1624.83,-233 1628.67,-233 1632.5,-236.83 1632.5,-240.67 1632.5,-240.67 1632.5,-248.33 1632.5,-248.33 1632.5,-252.17 1628.67,-256 1624.83,-256"/>
<text text-anchor="middle" x="1504" y="-240.8" font-family="Arial" font-size="14.00" fill="#c6c5fe">components/Dialogs/Dialog/Dialog.jsx</text>
</g>
<!-- components/Dialogs/Dialog/Dialog.module.css -->
<g id="node23" class="node">
<title>components/Dialogs/Dialog/Dialog.module.css</title>
<path fill="none" stroke="#cfffac" d="M2125.83,-254C2125.83,-254 1828.17,-254 1828.17,-254 1824.33,-254 1820.5,-250.17 1820.5,-246.33 1820.5,-246.33 1820.5,-238.67 1820.5,-238.67 1820.5,-234.83 1824.33,-231 1828.17,-231 1828.17,-231 2125.83,-231 2125.83,-231 2129.67,-231 2133.5,-234.83 2133.5,-238.67 2133.5,-238.67 2133.5,-246.33 2133.5,-246.33 2133.5,-250.17 2129.67,-254 2125.83,-254"/>
<text text-anchor="middle" x="1977" y="-238.8" font-family="Arial" font-size="14.00" fill="#cfffac">components/Dialogs/Dialog/Dialog.module.css</text>
</g>
<!-- components/Dialogs/Dialog/Dialog.jsx&#45;&gt;components/Dialogs/Dialog/Dialog.module.css -->
<g id="edge24" class="edge">
<title>components/Dialogs/Dialog/Dialog.jsx&#45;&gt;components/Dialogs/Dialog/Dialog.module.css</title>
<path fill="none" stroke="#757575" d="M1632.77,-243.96C1687.49,-243.73 1752.11,-243.45 1810.43,-243.2"/>
<polygon fill="#757575" stroke="#757575" points="1810.51,-246.7 1820.49,-243.16 1810.48,-239.7 1810.51,-246.7"/>
</g>
<!-- components/Dialogs/Dialog/Messages/Message/Message.jsx -->
<g id="node24" class="node">
<title>components/Dialogs/Dialog/Messages/Message/Message.jsx</title>
<path fill="none" stroke="#c6c5fe" d="M2172.83,-295C2172.83,-295 1781.17,-295 1781.17,-295 1777.33,-295 1773.5,-291.17 1773.5,-287.33 1773.5,-287.33 1773.5,-279.67 1773.5,-279.67 1773.5,-275.83 1777.33,-272 1781.17,-272 1781.17,-272 2172.83,-272 2172.83,-272 2176.67,-272 2180.5,-275.83 2180.5,-279.67 2180.5,-279.67 2180.5,-287.33 2180.5,-287.33 2180.5,-291.17 2176.67,-295 2172.83,-295"/>
<text text-anchor="middle" x="1977" y="-279.8" font-family="Arial" font-size="14.00" fill="#c6c5fe">components/Dialogs/Dialog/Messages/Message/Message.jsx</text>
</g>
<!-- components/Dialogs/Dialog/Messages/Message/Message.module.css -->
<g id="node25" class="node">
<title>components/Dialogs/Dialog/Messages/Message/Message.module.css</title>
<path fill="none" stroke="#cfffac" d="M2705.33,-295C2705.33,-295 2257.67,-295 2257.67,-295 2253.83,-295 2250,-291.17 2250,-287.33 2250,-287.33 2250,-279.67 2250,-279.67 2250,-275.83 2253.83,-272 2257.67,-272 2257.67,-272 2705.33,-272 2705.33,-272 2709.17,-272 2713,-275.83 2713,-279.67 2713,-279.67 2713,-287.33 2713,-287.33 2713,-291.17 2709.17,-295 2705.33,-295"/>
<text text-anchor="middle" x="2481.5" y="-279.8" font-family="Arial" font-size="14.00" fill="#cfffac">components/Dialogs/Dialog/Messages/Message/Message.module.css</text>
</g>
<!-- components/Dialogs/Dialog/Messages/Message/Message.jsx&#45;&gt;components/Dialogs/Dialog/Messages/Message/Message.module.css -->
<g id="edge25" class="edge">
<title>components/Dialogs/Dialog/Messages/Message/Message.jsx&#45;&gt;components/Dialogs/Dialog/Messages/Message/Message.module.css</title>
<path fill="none" stroke="#757575" d="M2180.58,-283.5C2200.04,-283.5 2219.92,-283.5 2239.71,-283.5"/>
<polygon fill="#757575" stroke="#757575" points="2239.73,-287 2249.73,-283.5 2239.73,-280 2239.73,-287"/>
</g>
<!-- components/Dialogs/Dialog/Messages/MessageForm/MessageFrom.jsx -->
<g id="node26" class="node">
<title>components/Dialogs/Dialog/Messages/MessageForm/MessageFrom.jsx</title>
<path fill="none" stroke="#c6c5fe" d="M2206.33,-336C2206.33,-336 1747.67,-336 1747.67,-336 1743.83,-336 1740,-332.17 1740,-328.33 1740,-328.33 1740,-320.67 1740,-320.67 1740,-316.83 1743.83,-313 1747.67,-313 1747.67,-313 2206.33,-313 2206.33,-313 2210.17,-313 2214,-316.83 2214,-320.67 2214,-320.67 2214,-328.33 2214,-328.33 2214,-332.17 2210.17,-336 2206.33,-336"/>
<text text-anchor="middle" x="1977" y="-320.8" font-family="Arial" font-size="14.00" fill="#c6c5fe">components/Dialogs/Dialog/Messages/MessageForm/MessageFrom.jsx</text>
</g>
<!-- components/common/FormControls/FormsControls.js -->
<g id="node27" class="node">
<title>components/common/FormControls/FormsControls.js</title>
<path fill="none" stroke="#c6c5fe" d="M2652.83,-622C2652.83,-622 2310.17,-622 2310.17,-622 2306.33,-622 2302.5,-618.17 2302.5,-614.33 2302.5,-614.33 2302.5,-606.67 2302.5,-606.67 2302.5,-602.83 2306.33,-599 2310.17,-599 2310.17,-599 2652.83,-599 2652.83,-599 2656.67,-599 2660.5,-602.83 2660.5,-606.67 2660.5,-606.67 2660.5,-614.33 2660.5,-614.33 2660.5,-618.17 2656.67,-622 2652.83,-622"/>
<text text-anchor="middle" x="2481.5" y="-606.8" font-family="Arial" font-size="14.00" fill="#c6c5fe">components/common/FormControls/FormsControls.js</text>
</g>
<!-- components/Dialogs/Dialog/Messages/MessageForm/MessageFrom.jsx&#45;&gt;components/common/FormControls/FormsControls.js -->
<g id="edge26" class="edge">
<title>components/Dialogs/Dialog/Messages/MessageForm/MessageFrom.jsx&#45;&gt;components/common/FormControls/FormsControls.js</title>
<path fill="none" stroke="#757575" d="M2026.08,-312.93C2079.3,-303.24 2164.13,-297.6 2214,-344.5 2294.17,-419.9 2170.07,-513.85 2250,-589.5 2294.6,-631.71 2368.08,-631.01 2420.08,-623.59"/>
<polygon fill="#757575" stroke="#757575" points="2420.83,-627.01 2430.18,-622.02 2419.76,-620.1 2420.83,-627.01"/>
</g>
<!-- utils/validators/validators.js -->
<g id="node28" class="node">
<title>utils/validators/validators.js</title>
<path fill="none" stroke="#cfffac" d="M2565.33,-581C2565.33,-581 2397.67,-581 2397.67,-581 2393.83,-581 2390,-577.17 2390,-573.33 2390,-573.33 2390,-565.67 2390,-565.67 2390,-561.83 2393.83,-558 2397.67,-558 2397.67,-558 2565.33,-558 2565.33,-558 2569.17,-558 2573,-561.83 2573,-565.67 2573,-565.67 2573,-573.33 2573,-573.33 2573,-577.17 2569.17,-581 2565.33,-581"/>
<text text-anchor="middle" x="2481.5" y="-565.8" font-family="Arial" font-size="14.00" fill="#cfffac">utils/validators/validators.js</text>
</g>
<!-- components/Dialogs/Dialog/Messages/MessageForm/MessageFrom.jsx&#45;&gt;utils/validators/validators.js -->
<g id="edge27" class="edge">
<title>components/Dialogs/Dialog/Messages/MessageForm/MessageFrom.jsx&#45;&gt;utils/validators/validators.js</title>
<path fill="none" stroke="#757575" d="M2190.23,-336.03C2198.36,-338.5 2206.31,-341.31 2214,-344.5 2326.99,-391.32 2427.58,-504.32 2465,-549.93"/>
<polygon fill="#757575" stroke="#757575" points="2462.42,-552.3 2471.44,-557.87 2467.86,-547.9 2462.42,-552.3"/>
</g>
<!-- components/common/FormControls/formControls.module.css -->
<g id="node73" class="node">
<title>components/common/FormControls/formControls.module.css</title>
<path fill="none" stroke="#cfffac" d="M3150.33,-622C3150.33,-622 2756.67,-622 2756.67,-622 2752.83,-622 2749,-618.17 2749,-614.33 2749,-614.33 2749,-606.67 2749,-606.67 2749,-602.83 2752.83,-599 2756.67,-599 2756.67,-599 3150.33,-599 3150.33,-599 3154.17,-599 3158,-602.83 3158,-606.67 3158,-606.67 3158,-614.33 3158,-614.33 3158,-618.17 3154.17,-622 3150.33,-622"/>
<text text-anchor="middle" x="2953.5" y="-606.8" font-family="Arial" font-size="14.00" fill="#cfffac">components/common/FormControls/formControls.module.css</text>
</g>
<!-- components/common/FormControls/FormsControls.js&#45;&gt;components/common/FormControls/formControls.module.css -->
<g id="edge94" class="edge">
<title>components/common/FormControls/FormsControls.js&#45;&gt;components/common/FormControls/formControls.module.css</title>
<path fill="none" stroke="#757575" d="M2660.52,-610.5C2686.09,-610.5 2712.63,-610.5 2738.8,-610.5"/>
<polygon fill="#757575" stroke="#757575" points="2738.81,-614 2748.81,-610.5 2738.81,-607 2738.81,-614"/>
</g>
<!-- components/Dialogs/Dialog/Messages/Messages.jsx -->
<g id="node29" class="node">
<title>components/Dialogs/Dialog/Messages/Messages.jsx</title>
<path fill="none" stroke="#c6c5fe" d="M1672.33,-336C1672.33,-336 1335.67,-336 1335.67,-336 1331.83,-336 1328,-332.17 1328,-328.33 1328,-328.33 1328,-320.67 1328,-320.67 1328,-316.83 1331.83,-313 1335.67,-313 1335.67,-313 1672.33,-313 1672.33,-313 1676.17,-313 1680,-316.83 1680,-320.67 1680,-320.67 1680,-328.33 1680,-328.33 1680,-332.17 1676.17,-336 1672.33,-336"/>
<text text-anchor="middle" x="1504" y="-320.8" font-family="Arial" font-size="14.00" fill="#c6c5fe">components/Dialogs/Dialog/Messages/Messages.jsx</text>
</g>
<!-- components/Dialogs/Dialog/Messages/Messages.jsx&#45;&gt;components/Dialogs/Dialog/Messages/Message/Message.jsx -->
<g id="edge28" class="edge">
<title>components/Dialogs/Dialog/Messages/Messages.jsx&#45;&gt;components/Dialogs/Dialog/Messages/Message/Message.jsx</title>
<path fill="none" stroke="#757575" d="M1632.75,-312.98C1667.53,-309.87 1705.21,-306.53 1740,-303.5 1768.67,-301 1799.31,-298.38 1828.69,-295.88"/>
<polygon fill="#757575" stroke="#757575" points="1829.36,-299.33 1839.03,-295 1828.77,-292.36 1829.36,-299.33"/>
</g>
<!-- components/Dialogs/Dialog/Messages/Messages.jsx&#45;&gt;components/Dialogs/Dialog/Messages/MessageForm/MessageFrom.jsx -->
<g id="edge29" class="edge">
<title>components/Dialogs/Dialog/Messages/Messages.jsx&#45;&gt;components/Dialogs/Dialog/Messages/MessageForm/MessageFrom.jsx</title>
<path fill="none" stroke="#757575" d="M1680.05,-324.5C1696.19,-324.5 1712.74,-324.5 1729.37,-324.5"/>
<polygon fill="#757575" stroke="#757575" points="1729.73,-328 1739.73,-324.5 1729.73,-321 1729.73,-328"/>
</g>
<!-- components/Dialogs/Dialog/Messages/Messages.module.css -->
<g id="node30" class="node">
<title>components/Dialogs/Dialog/Messages/Messages.module.css</title>
<path fill="none" stroke="#cfffac" d="M2173.33,-377C2173.33,-377 1780.67,-377 1780.67,-377 1776.83,-377 1773,-373.17 1773,-369.33 1773,-369.33 1773,-361.67 1773,-361.67 1773,-357.83 1776.83,-354 1780.67,-354 1780.67,-354 2173.33,-354 2173.33,-354 2177.17,-354 2181,-357.83 2181,-361.67 2181,-361.67 2181,-369.33 2181,-369.33 2181,-373.17 2177.17,-377 2173.33,-377"/>
<text text-anchor="middle" x="1977" y="-361.8" font-family="Arial" font-size="14.00" fill="#cfffac">components/Dialogs/Dialog/Messages/Messages.module.css</text>
</g>
<!-- components/Dialogs/Dialog/Messages/Messages.jsx&#45;&gt;components/Dialogs/Dialog/Messages/Messages.module.css -->
<g id="edge30" class="edge">
<title>components/Dialogs/Dialog/Messages/Messages.jsx&#45;&gt;components/Dialogs/Dialog/Messages/Messages.module.css</title>
<path fill="none" stroke="#757575" d="M1637.14,-336C1698.23,-341.32 1770.9,-347.65 1833.24,-353.07"/>
<polygon fill="#757575" stroke="#757575" points="1833.29,-356.59 1843.56,-353.97 1833.9,-349.62 1833.29,-356.59"/>
</g>
<!-- components/Dialogs/Dialogs.jsx&#45;&gt;components/Dialogs/Dialog/Dialog.jsx -->
<g id="edge31" class="edge">
<title>components/Dialogs/Dialogs.jsx&#45;&gt;components/Dialogs/Dialog/Dialog.jsx</title>
<path fill="none" stroke="#757575" d="M1184.12,-324.64C1212.39,-321.49 1242.13,-315.21 1268,-303.5 1287.77,-294.55 1284.32,-279.67 1304,-270.5 1323.02,-261.64 1344.1,-255.51 1365.22,-251.32"/>
<polygon fill="#757575" stroke="#757575" points="1366.05,-254.72 1375.25,-249.47 1364.78,-247.84 1366.05,-254.72"/>
</g>
<!-- components/Dialogs/Dialogs.jsx&#45;&gt;components/Dialogs/Dialog/Messages/Messages.jsx -->
<g id="edge32" class="edge">
<title>components/Dialogs/Dialogs.jsx&#45;&gt;components/Dialogs/Dialog/Messages/Messages.jsx</title>
<path fill="none" stroke="#757575" d="M1184.11,-324.5C1224.83,-324.5 1272.29,-324.5 1317.96,-324.5"/>
<polygon fill="#757575" stroke="#757575" points="1317.98,-328 1327.98,-324.5 1317.98,-321 1317.98,-328"/>
</g>
<!-- components/Dialogs/Dialogs.module.css -->
<g id="node32" class="node">
<title>components/Dialogs/Dialogs.module.css</title>
<path fill="none" stroke="#cfffac" d="M1634.33,-215C1634.33,-215 1373.67,-215 1373.67,-215 1369.83,-215 1366,-211.17 1366,-207.33 1366,-207.33 1366,-199.67 1366,-199.67 1366,-195.83 1369.83,-192 1373.67,-192 1373.67,-192 1634.33,-192 1634.33,-192 1638.17,-192 1642,-195.83 1642,-199.67 1642,-199.67 1642,-207.33 1642,-207.33 1642,-211.17 1638.17,-215 1634.33,-215"/>
<text text-anchor="middle" x="1504" y="-199.8" font-family="Arial" font-size="14.00" fill="#cfffac">components/Dialogs/Dialogs.module.css</text>
</g>
<!-- components/Dialogs/Dialogs.jsx&#45;&gt;components/Dialogs/Dialogs.module.css -->
<g id="edge33" class="edge">
<title>components/Dialogs/Dialogs.jsx&#45;&gt;components/Dialogs/Dialogs.module.css</title>
<path fill="none" stroke="#757575" d="M1184.01,-331.78C1213.52,-328.9 1243.93,-320.98 1268,-303.5 1299.55,-280.59 1272.36,-246.28 1304,-223.5 1319.42,-212.4 1337.33,-205.13 1355.98,-200.56"/>
<polygon fill="#757575" stroke="#757575" points="1356.77,-203.97 1365.78,-198.41 1355.27,-197.13 1356.77,-203.97"/>
</g>
<!-- components/Header/Header.module.css -->
<g id="node35" class="node">
<title>components/Header/Header.module.css</title>
<path fill="none" stroke="#cfffac" d="M1202.83,-921C1202.83,-921 945.17,-921 945.17,-921 941.33,-921 937.5,-917.17 937.5,-913.33 937.5,-913.33 937.5,-905.67 937.5,-905.67 937.5,-901.83 941.33,-898 945.17,-898 945.17,-898 1202.83,-898 1202.83,-898 1206.67,-898 1210.5,-901.83 1210.5,-905.67 1210.5,-905.67 1210.5,-913.33 1210.5,-913.33 1210.5,-917.17 1206.67,-921 1202.83,-921"/>
<text text-anchor="middle" x="1074" y="-905.8" font-family="Arial" font-size="14.00" fill="#cfffac">components/Header/Header.module.css</text>
</g>
<!-- components/Header/Header.jsx&#45;&gt;components/Header/Header.module.css -->
<g id="edge37" class="edge">
<title>components/Header/Header.jsx&#45;&gt;components/Header/Header.module.css</title>
<path fill="none" stroke="#757575" d="M786.04,-932.05C829.51,-928.63 880.36,-924.64 927.08,-920.97"/>
<polygon fill="#757575" stroke="#757575" points="927.6,-924.44 937.29,-920.16 927.05,-917.46 927.6,-924.44"/>
</g>
<!-- resources/img/original.jpg -->
<g id="node36" class="node">
<title>resources/img/original.jpg</title>
<path fill="none" stroke="#cfffac" d="M1155.83,-962C1155.83,-962 992.17,-962 992.17,-962 988.33,-962 984.5,-958.17 984.5,-954.33 984.5,-954.33 984.5,-946.67 984.5,-946.67 984.5,-942.83 988.33,-939 992.17,-939 992.17,-939 1155.83,-939 1155.83,-939 1159.67,-939 1163.5,-942.83 1163.5,-946.67 1163.5,-946.67 1163.5,-954.33 1163.5,-954.33 1163.5,-958.17 1159.67,-962 1155.83,-962"/>
<text text-anchor="middle" x="1074" y="-946.8" font-family="Arial" font-size="14.00" fill="#cfffac">resources/img/original.jpg</text>
</g>
<!-- components/Header/Header.jsx&#45;&gt;resources/img/original.jpg -->
<g id="edge38" class="edge">
<title>components/Header/Header.jsx&#45;&gt;resources/img/original.jpg</title>
<path fill="none" stroke="#757575" d="M786.04,-943.23C844.69,-944.71 916.78,-946.54 974.04,-947.99"/>
<polygon fill="#757575" stroke="#757575" points="974.1,-951.49 984.18,-948.25 974.27,-944.5 974.1,-951.49"/>
</g>
<!-- components/Login/LoginForm/LoginForm.jsx&#45;&gt;components/common/FormControls/FormsControls.js -->
<g id="edge44" class="edge">
<title>components/Login/LoginForm/LoginForm.jsx&#45;&gt;components/common/FormControls/FormsControls.js</title>
<path fill="none" stroke="#757575" d="M2123.87,-660.99C2153.72,-658.22 2184.91,-655.03 2214,-651.5 2278.07,-643.73 2350.42,-632.44 2403.55,-623.67"/>
<polygon fill="#757575" stroke="#757575" points="2404.29,-627.1 2413.58,-622.01 2403.14,-620.19 2404.29,-627.1"/>
</g>
<!-- components/Login/LoginForm/LoginForm.jsx&#45;&gt;utils/validators/validators.js -->
<g id="edge45" class="edge">
<title>components/Login/LoginForm/LoginForm.jsx&#45;&gt;utils/validators/validators.js</title>
<path fill="none" stroke="#757575" d="M2127.61,-680.49C2157.97,-676.43 2188.41,-667.79 2214,-651.5 2240.88,-634.39 2223.1,-606.58 2250,-589.5 2287.91,-565.43 2336.66,-558.57 2379.56,-558.48"/>
<polygon fill="#757575" stroke="#757575" points="2379.72,-561.98 2389.76,-558.58 2379.79,-554.98 2379.72,-561.98"/>
</g>
<!-- components/Login/LoginForm/loginForm.module.css -->
<g id="node38" class="node">
<title>components/Login/LoginForm/loginForm.module.css</title>
<path fill="none" stroke="#cfffac" d="M2649.83,-684C2649.83,-684 2313.17,-684 2313.17,-684 2309.33,-684 2305.5,-680.17 2305.5,-676.33 2305.5,-676.33 2305.5,-668.67 2305.5,-668.67 2305.5,-664.83 2309.33,-661 2313.17,-661 2313.17,-661 2649.83,-661 2649.83,-661 2653.67,-661 2657.5,-664.83 2657.5,-668.67 2657.5,-668.67 2657.5,-676.33 2657.5,-676.33 2657.5,-680.17 2653.67,-684 2649.83,-684"/>
<text text-anchor="middle" x="2481.5" y="-668.8" font-family="Arial" font-size="14.00" fill="#cfffac">components/Login/LoginForm/loginForm.module.css</text>
</g>
<!-- components/Login/LoginForm/LoginForm.jsx&#45;&gt;components/Login/LoginForm/loginForm.module.css -->
<g id="edge43" class="edge">
<title>components/Login/LoginForm/LoginForm.jsx&#45;&gt;components/Login/LoginForm/loginForm.module.css</title>
<path fill="none" stroke="#757575" d="M2127.75,-672.5C2180.3,-672.5 2239.98,-672.5 2295.1,-672.5"/>
<polygon fill="#757575" stroke="#757575" points="2295.34,-676 2305.34,-672.5 2295.34,-669 2295.34,-676"/>
</g>
<!-- components/NavBar/Friends/Friend/Friend.jsx -->
<g id="node39" class="node">
<title>components/NavBar/Friends/Friend/Friend.jsx</title>
<path fill="none" stroke="#c6c5fe" d="M1649.33,-23C1649.33,-23 1358.67,-23 1358.67,-23 1354.83,-23 1351,-19.17 1351,-15.33 1351,-15.33 1351,-7.67 1351,-7.67 1351,-3.83 1354.83,0 1358.67,0 1358.67,0 1649.33,0 1649.33,0 1653.17,0 1657,-3.83 1657,-7.67 1657,-7.67 1657,-15.33 1657,-15.33 1657,-19.17 1653.17,-23 1649.33,-23"/>
<text text-anchor="middle" x="1504" y="-7.8" font-family="Arial" font-size="14.00" fill="#c6c5fe">components/NavBar/Friends/Friend/Friend.jsx</text>
</g>
<!-- components/NavBar/Friends/Friend/Friend.module.css -->
<g id="node40" class="node">
<title>components/NavBar/Friends/Friend/Friend.module.css</title>
<path fill="none" stroke="#cfffac" d="M2150.33,-23C2150.33,-23 1803.67,-23 1803.67,-23 1799.83,-23 1796,-19.17 1796,-15.33 1796,-15.33 1796,-7.67 1796,-7.67 1796,-3.83 1799.83,0 1803.67,0 1803.67,0 2150.33,0 2150.33,0 2154.17,0 2158,-3.83 2158,-7.67 2158,-7.67 2158,-15.33 2158,-15.33 2158,-19.17 2154.17,-23 2150.33,-23"/>
<text text-anchor="middle" x="1977" y="-7.8" font-family="Arial" font-size="14.00" fill="#cfffac">components/NavBar/Friends/Friend/Friend.module.css</text>
</g>
<!-- components/NavBar/Friends/Friend/Friend.jsx&#45;&gt;components/NavBar/Friends/Friend/Friend.module.css -->
<g id="edge46" class="edge">
<title>components/NavBar/Friends/Friend/Friend.jsx&#45;&gt;components/NavBar/Friends/Friend/Friend.module.css</title>
<path fill="none" stroke="#757575" d="M1657.27,-11.5C1698.2,-11.5 1742.98,-11.5 1785.7,-11.5"/>
<polygon fill="#757575" stroke="#757575" points="1785.93,-15 1795.93,-11.5 1785.93,-8 1785.93,-15"/>
</g>
<!-- resources/img/main&#45;prof.jpg -->
<g id="node41" class="node">
<title>resources/img/main&#45;prof.jpg</title>
<path fill="none" stroke="#cfffac" d="M2066.33,-175C2066.33,-175 1887.67,-175 1887.67,-175 1883.83,-175 1880,-171.17 1880,-167.33 1880,-167.33 1880,-159.67 1880,-159.67 1880,-155.83 1883.83,-152 1887.67,-152 1887.67,-152 2066.33,-152 2066.33,-152 2070.17,-152 2074,-155.83 2074,-159.67 2074,-159.67 2074,-167.33 2074,-167.33 2074,-171.17 2070.17,-175 2066.33,-175"/>
<text text-anchor="middle" x="1977" y="-159.8" font-family="Arial" font-size="14.00" fill="#cfffac">resources/img/main&#45;prof.jpg</text>
</g>
<!-- components/NavBar/Friends/Friend/Friend.jsx&#45;&gt;resources/img/main&#45;prof.jpg -->
<g id="edge47" class="edge">
<title>components/NavBar/Friends/Friend/Friend.jsx&#45;&gt;resources/img/main&#45;prof.jpg</title>
<path fill="none" stroke="#757575" d="M1657.08,-21.19C1673.07,-23.86 1688.97,-27.24 1704,-31.5 1799.17,-58.45 1901.61,-117.25 1949.05,-146.4"/>
<polygon fill="#757575" stroke="#757575" points="1947.44,-149.52 1957.79,-151.82 1951.13,-143.58 1947.44,-149.52"/>
</g>
<!-- components/NavBar/Friends/Friends.jsx -->
<g id="node42" class="node">
<title>components/NavBar/Friends/Friends.jsx</title>
<path fill="none" stroke="#c6c5fe" d="M1200.83,-42C1200.83,-42 947.17,-42 947.17,-42 943.33,-42 939.5,-38.17 939.5,-34.33 939.5,-34.33 939.5,-26.67 939.5,-26.67 939.5,-22.83 943.33,-19 947.17,-19 947.17,-19 1200.83,-19 1200.83,-19 1204.67,-19 1208.5,-22.83 1208.5,-26.67 1208.5,-26.67 1208.5,-34.33 1208.5,-34.33 1208.5,-38.17 1204.67,-42 1200.83,-42"/>
<text text-anchor="middle" x="1074" y="-26.8" font-family="Arial" font-size="14.00" fill="#c6c5fe">components/NavBar/Friends/Friends.jsx</text>
</g>
<!-- components/NavBar/Friends/Friends.jsx&#45;&gt;components/NavBar/Friends/Friend/Friend.jsx -->
<g id="edge48" class="edge">
<title>components/NavBar/Friends/Friends.jsx&#45;&gt;components/NavBar/Friends/Friend/Friend.jsx</title>
<path fill="none" stroke="#757575" d="M1208.66,-24.57C1250.53,-22.71 1297.2,-20.64 1340.81,-18.7"/>
<polygon fill="#757575" stroke="#757575" points="1341.11,-22.19 1350.95,-18.25 1340.8,-15.2 1341.11,-22.19"/>
</g>
<!-- components/NavBar/Friends/Friends.module.css -->
<g id="node43" class="node">
<title>components/NavBar/Friends/Friends.module.css</title>
<path fill="none" stroke="#cfffac" d="M1659.33,-64C1659.33,-64 1348.67,-64 1348.67,-64 1344.83,-64 1341,-60.17 1341,-56.33 1341,-56.33 1341,-48.67 1341,-48.67 1341,-44.83 1344.83,-41 1348.67,-41 1348.67,-41 1659.33,-41 1659.33,-41 1663.17,-41 1667,-44.83 1667,-48.67 1667,-48.67 1667,-56.33 1667,-56.33 1667,-60.17 1663.17,-64 1659.33,-64"/>
<text text-anchor="middle" x="1504" y="-48.8" font-family="Arial" font-size="14.00" fill="#cfffac">components/NavBar/Friends/Friends.module.css</text>
</g>
<!-- components/NavBar/Friends/Friends.jsx&#45;&gt;components/NavBar/Friends/Friends.module.css -->
<g id="edge49" class="edge">
<title>components/NavBar/Friends/Friends.jsx&#45;&gt;components/NavBar/Friends/Friends.module.css</title>
<path fill="none" stroke="#757575" d="M1208.66,-37.37C1247.3,-39.36 1290.02,-41.55 1330.65,-43.64"/>
<polygon fill="#757575" stroke="#757575" points="1330.49,-47.14 1340.66,-44.16 1330.85,-40.15 1330.49,-47.14"/>
</g>
<!-- components/NavBar/NavBar.jsx&#45;&gt;components/NavBar/Friends/Friends.jsx -->
<g id="edge50" class="edge">
<title>components/NavBar/NavBar.jsx&#45;&gt;components/NavBar/Friends/Friends.jsx</title>
<path fill="none" stroke="#757575" d="M727.11,-80.91C767.76,-71.57 827.39,-58.69 880,-50.5 897.41,-47.79 915.77,-45.35 933.95,-43.19"/>
<polygon fill="#757575" stroke="#757575" points="934.5,-46.65 944.03,-42.02 933.69,-39.7 934.5,-46.65"/>
</g>
<!-- components/NavBar/NavBar.module.css -->
<g id="node45" class="node">
<title>components/NavBar/NavBar.module.css</title>
<path fill="none" stroke="#cfffac" d="M1202.33,-124C1202.33,-124 945.67,-124 945.67,-124 941.83,-124 938,-120.17 938,-116.33 938,-116.33 938,-108.67 938,-108.67 938,-104.83 941.83,-101 945.67,-101 945.67,-101 1202.33,-101 1202.33,-101 1206.17,-101 1210,-104.83 1210,-108.67 1210,-108.67 1210,-116.33 1210,-116.33 1210,-120.17 1206.17,-124 1202.33,-124"/>
<text text-anchor="middle" x="1074" y="-108.8" font-family="Arial" font-size="14.00" fill="#cfffac">components/NavBar/NavBar.module.css</text>
</g>
<!-- components/NavBar/NavBar.jsx&#45;&gt;components/NavBar/NavBar.module.css -->
<g id="edge51" class="edge">
<title>components/NavBar/NavBar.jsx&#45;&gt;components/NavBar/NavBar.module.css</title>
<path fill="none" stroke="#757575" d="M785.26,-97.91C829.14,-100.14 880.66,-102.75 927.88,-105.14"/>
<polygon fill="#757575" stroke="#757575" points="927.72,-108.64 937.89,-105.65 928.08,-101.65 927.72,-108.64"/>
</g>
<!-- components/NavBar/NavButton/NavButton.jsx -->
<g id="node46" class="node">
<title>components/NavBar/NavButton/NavButton.jsx</title>
<path fill="none" stroke="#c6c5fe" d="M1217.33,-83C1217.33,-83 930.67,-83 930.67,-83 926.83,-83 923,-79.17 923,-75.33 923,-75.33 923,-67.67 923,-67.67 923,-63.83 926.83,-60 930.67,-60 930.67,-60 1217.33,-60 1217.33,-60 1221.17,-60 1225,-63.83 1225,-67.67 1225,-67.67 1225,-75.33 1225,-75.33 1225,-79.17 1221.17,-83 1217.33,-83"/>
<text text-anchor="middle" x="1074" y="-67.8" font-family="Arial" font-size="14.00" fill="#c6c5fe">components/NavBar/NavButton/NavButton.jsx</text>
</g>
<!-- components/NavBar/NavBar.jsx&#45;&gt;components/NavBar/NavButton/NavButton.jsx -->
<g id="edge52" class="edge">
<title>components/NavBar/NavBar.jsx&#45;&gt;components/NavBar/NavButton/NavButton.jsx</title>
<path fill="none" stroke="#757575" d="M785.26,-86.82C824.53,-84.73 869.91,-82.31 912.85,-80.02"/>
<polygon fill="#757575" stroke="#757575" points="913.04,-83.52 922.84,-79.49 912.67,-76.53 913.04,-83.52"/>
</g>
<!-- components/NavBar/NavButton/NavButton.module.css -->
<g id="node47" class="node">
<title>components/NavBar/NavButton/NavButton.module.css</title>
<path fill="none" stroke="#cfffac" d="M1675.83,-105C1675.83,-105 1332.17,-105 1332.17,-105 1328.33,-105 1324.5,-101.17 1324.5,-97.33 1324.5,-97.33 1324.5,-89.67 1324.5,-89.67 1324.5,-85.83 1328.33,-82 1332.17,-82 1332.17,-82 1675.83,-82 1675.83,-82 1679.67,-82 1683.5,-85.83 1683.5,-89.67 1683.5,-89.67 1683.5,-97.33 1683.5,-97.33 1683.5,-101.17 1679.67,-105 1675.83,-105"/>
<text text-anchor="middle" x="1504" y="-89.8" font-family="Arial" font-size="14.00" fill="#cfffac">components/NavBar/NavButton/NavButton.module.css</text>
</g>
<!-- components/NavBar/NavButton/NavButton.jsx&#45;&gt;components/NavBar/NavButton/NavButton.module.css -->
<g id="edge54" class="edge">
<title>components/NavBar/NavButton/NavButton.jsx&#45;&gt;components/NavBar/NavButton/NavButton.module.css</title>
<path fill="none" stroke="#757575" d="M1225.29,-79.23C1254.08,-80.7 1284.55,-82.27 1314.36,-83.8"/>
<polygon fill="#757575" stroke="#757575" points="1314.27,-87.3 1324.44,-84.32 1314.63,-80.31 1314.27,-87.3"/>
</g>
<!-- components/Profile/Character/Avatar/Avatar.jsx -->
<g id="node48" class="node">
<title>components/Profile/Character/Avatar/Avatar.jsx</title>
<path fill="none" stroke="#c6c5fe" d="M1653.33,-541C1653.33,-541 1354.67,-541 1354.67,-541 1350.83,-541 1347,-537.17 1347,-533.33 1347,-533.33 1347,-525.67 1347,-525.67 1347,-521.83 1350.83,-518 1354.67,-518 1354.67,-518 1653.33,-518 1653.33,-518 1657.17,-518 1661,-521.83 1661,-525.67 1661,-525.67 1661,-533.33 1661,-533.33 1661,-537.17 1657.17,-541 1653.33,-541"/>
<text text-anchor="middle" x="1504" y="-525.8" font-family="Arial" font-size="14.00" fill="#c6c5fe">components/Profile/Character/Avatar/Avatar.jsx</text>
</g>
<!-- components/Profile/Character/Avatar/Avatar.module.css -->
<g id="node49" class="node">
<title>components/Profile/Character/Avatar/Avatar.module.css</title>
<path fill="none" stroke="#cfffac" d="M2154.33,-541C2154.33,-541 1799.67,-541 1799.67,-541 1795.83,-541 1792,-537.17 1792,-533.33 1792,-533.33 1792,-525.67 1792,-525.67 1792,-521.83 1795.83,-518 1799.67,-518 1799.67,-518 2154.33,-518 2154.33,-518 2158.17,-518 2162,-521.83 2162,-525.67 2162,-525.67 2162,-533.33 2162,-533.33 2162,-537.17 2158.17,-541 2154.33,-541"/>
<text text-anchor="middle" x="1977" y="-525.8" font-family="Arial" font-size="14.00" fill="#cfffac">components/Profile/Character/Avatar/Avatar.module.css</text>
</g>
<!-- components/Profile/Character/Avatar/Avatar.jsx&#45;&gt;components/Profile/Character/Avatar/Avatar.module.css -->
<g id="edge55" class="edge">
<title>components/Profile/Character/Avatar/Avatar.jsx&#45;&gt;components/Profile/Character/Avatar/Avatar.module.css</title>
<path fill="none" stroke="#757575" d="M1661.18,-529.5C1699.69,-529.5 1741.41,-529.5 1781.49,-529.5"/>
<polygon fill="#757575" stroke="#757575" points="1781.64,-533 1791.64,-529.5 1781.64,-526 1781.64,-533"/>
</g>
<!-- components/Profile/Character/Character.jsx -->
<g id="node50" class="node">
<title>components/Profile/Character/Character.jsx</title>
<path fill="none" stroke="#c6c5fe" d="M1212.33,-500C1212.33,-500 935.67,-500 935.67,-500 931.83,-500 928,-496.17 928,-492.33 928,-492.33 928,-484.67 928,-484.67 928,-480.83 931.83,-477 935.67,-477 935.67,-477 1212.33,-477 1212.33,-477 1216.17,-477 1220,-480.83 1220,-484.67 1220,-484.67 1220,-492.33 1220,-492.33 1220,-496.17 1216.17,-500 1212.33,-500"/>
<text text-anchor="middle" x="1074" y="-484.8" font-family="Arial" font-size="14.00" fill="#c6c5fe">components/Profile/Character/Character.jsx</text>
</g>
<!-- components/Profile/Character/Character.jsx&#45;&gt;resources/img/main&#45;prof.jpg -->
<g id="edge61" class="edge">
<title>components/Profile/Character/Character.jsx&#45;&gt;resources/img/main&#45;prof.jpg</title>
<path fill="none" stroke="#757575" d="M1220.08,-492.76C1237.73,-487.77 1254.33,-479.77 1268,-467.5 1323.53,-417.65 1248.19,-353.04 1304,-303.5 1370.79,-244.21 1625.01,-306.18 1704,-264.5 1726.04,-252.87 1718.85,-234.68 1740,-221.5 1778.87,-197.28 1827.2,-183.17 1869.99,-174.95"/>
<polygon fill="#757575" stroke="#757575" points="1870.67,-178.38 1879.88,-173.13 1869.41,-171.5 1870.67,-178.38"/>
</g>
<!-- components/Profile/Character/Character.jsx&#45;&gt;components/Profile/Character/Avatar/Avatar.jsx -->
<g id="edge56" class="edge">
<title>components/Profile/Character/Character.jsx&#45;&gt;components/Profile/Character/Avatar/Avatar.jsx</title>
<path fill="none" stroke="#757575" d="M1195.08,-500C1250.36,-505.3 1316.08,-511.59 1372.58,-517.01"/>
<polygon fill="#757575" stroke="#757575" points="1372.36,-520.5 1382.65,-517.97 1373.03,-513.53 1372.36,-520.5"/>
</g>
<!-- components/Profile/Character/Character.module.css -->
<g id="node51" class="node">
<title>components/Profile/Character/Character.module.css</title>
<path fill="none" stroke="#cfffac" d="M1670.33,-500C1670.33,-500 1337.67,-500 1337.67,-500 1333.83,-500 1330,-496.17 1330,-492.33 1330,-492.33 1330,-484.67 1330,-484.67 1330,-480.83 1333.83,-477 1337.67,-477 1337.67,-477 1670.33,-477 1670.33,-477 1674.17,-477 1678,-480.83 1678,-484.67 1678,-484.67 1678,-492.33 1678,-492.33 1678,-496.17 1674.17,-500 1670.33,-500"/>
<text text-anchor="middle" x="1504" y="-484.8" font-family="Arial" font-size="14.00" fill="#cfffac">components/Profile/Character/Character.module.css</text>
</g>
<!-- components/Profile/Character/Character.jsx&#45;&gt;components/Profile/Character/Character.module.css -->
<g id="edge57" class="edge">
<title>components/Profile/Character/Character.jsx&#45;&gt;components/Profile/Character/Character.module.css</title>
<path fill="none" stroke="#757575" d="M1220.2,-488.5C1252.17,-488.5 1286.42,-488.5 1319.67,-488.5"/>
<polygon fill="#757575" stroke="#757575" points="1319.96,-492 1329.96,-488.5 1319.96,-485 1319.96,-492"/>
</g>
<!-- components/Profile/Character/Description/Description.jsx -->
<g id="node52" class="node">
<title>components/Profile/Character/Description/Description.jsx</title>
<path fill="none" stroke="#c6c5fe" d="M1685.33,-459C1685.33,-459 1322.67,-459 1322.67,-459 1318.83,-459 1315,-455.17 1315,-451.33 1315,-451.33 1315,-443.67 1315,-443.67 1315,-439.83 1318.83,-436 1322.67,-436 1322.67,-436 1685.33,-436 1685.33,-436 1689.17,-436 1693,-439.83 1693,-443.67 1693,-443.67 1693,-451.33 1693,-451.33 1693,-455.17 1689.17,-459 1685.33,-459"/>
<text text-anchor="middle" x="1504" y="-443.8" font-family="Arial" font-size="14.00" fill="#c6c5fe">components/Profile/Character/Description/Description.jsx</text>
</g>
<!-- components/Profile/Character/Character.jsx&#45;&gt;components/Profile/Character/Description/Description.jsx -->
<g id="edge58" class="edge">
<title>components/Profile/Character/Character.jsx&#45;&gt;components/Profile/Character/Description/Description.jsx</title>
<path fill="none" stroke="#757575" d="M1195.08,-477C1250.36,-471.7 1316.08,-465.41 1372.58,-459.99"/>
<polygon fill="#757575" stroke="#757575" points="1373.03,-463.47 1382.65,-459.03 1372.36,-456.5 1373.03,-463.47"/>
</g>
<!-- components/Profile/ProfileStatus/ProfileStatus.jsx -->
<g id="node53" class="node">
<title>components/Profile/ProfileStatus/ProfileStatus.jsx</title>
<path fill="none" stroke="#c6c5fe" d="M1661.83,-418C1661.83,-418 1346.17,-418 1346.17,-418 1342.33,-418 1338.5,-414.17 1338.5,-410.33 1338.5,-410.33 1338.5,-402.67 1338.5,-402.67 1338.5,-398.83 1342.33,-395 1346.17,-395 1346.17,-395 1661.83,-395 1661.83,-395 1665.67,-395 1669.5,-398.83 1669.5,-402.67 1669.5,-402.67 1669.5,-410.33 1669.5,-410.33 1669.5,-414.17 1665.67,-418 1661.83,-418"/>
<text text-anchor="middle" x="1504" y="-402.8" font-family="Arial" font-size="14.00" fill="#c6c5fe">components/Profile/ProfileStatus/ProfileStatus.jsx</text>
</g>
<!-- components/Profile/Character/Character.jsx&#45;&gt;components/Profile/ProfileStatus/ProfileStatus.jsx -->
<g id="edge59" class="edge">
<title>components/Profile/Character/Character.jsx&#45;&gt;components/Profile/ProfileStatus/ProfileStatus.jsx</title>
<path fill="none" stroke="#757575" d="M1220.25,-484.57C1236.9,-480.7 1253.2,-475.19 1268,-467.5 1289.52,-456.32 1282.44,-437.59 1304,-426.5 1311.85,-422.46 1320.11,-419.03 1328.61,-416.12"/>
<polygon fill="#757575" stroke="#757575" points="1329.82,-419.4 1338.3,-413.05 1327.71,-412.73 1329.82,-419.4"/>
</g>
<!-- components/Profile/ProfileStatus/ProfileStatusWithHooks.jsx -->
<g id="node54" class="node">
<title>components/Profile/ProfileStatus/ProfileStatusWithHooks.jsx</title>
<path fill="none" stroke="#c6c5fe" d="M1696.33,-377C1696.33,-377 1311.67,-377 1311.67,-377 1307.83,-377 1304,-373.17 1304,-369.33 1304,-369.33 1304,-361.67 1304,-361.67 1304,-357.83 1307.83,-354 1311.67,-354 1311.67,-354 1696.33,-354 1696.33,-354 1700.17,-354 1704,-357.83 1704,-361.67 1704,-361.67 1704,-369.33 1704,-369.33 1704,-373.17 1700.17,-377 1696.33,-377"/>
<text text-anchor="middle" x="1504" y="-361.8" font-family="Arial" font-size="14.00" fill="#c6c5fe">components/Profile/ProfileStatus/ProfileStatusWithHooks.jsx</text>
</g>
<!-- components/Profile/Character/Character.jsx&#45;&gt;components/Profile/ProfileStatus/ProfileStatusWithHooks.jsx -->
<g id="edge60" class="edge">
<title>components/Profile/Character/Character.jsx&#45;&gt;components/Profile/ProfileStatus/ProfileStatusWithHooks.jsx</title>
<path fill="none" stroke="#757575" d="M1220.42,-489.49C1237.51,-484.88 1253.87,-477.86 1268,-467.5 1300.1,-443.96 1271.81,-408.91 1304,-385.5 1305.45,-384.45 1306.92,-383.43 1308.41,-382.44"/>
<polygon fill="#757575" stroke="#757575" points="1310.42,-385.32 1317.17,-377.16 1306.8,-379.33 1310.42,-385.32"/>
</g>
<!-- components/Profile/Character/Description/Description.module.css -->
<g id="node55" class="node">
<title>components/Profile/Character/Description/Description.module.css</title>
<path fill="none" stroke="#cfffac" d="M2186.33,-459C2186.33,-459 1767.67,-459 1767.67,-459 1763.83,-459 1760,-455.17 1760,-451.33 1760,-451.33 1760,-443.67 1760,-443.67 1760,-439.83 1763.83,-436 1767.67,-436 1767.67,-436 2186.33,-436 2186.33,-436 2190.17,-436 2194,-439.83 2194,-443.67 2194,-443.67 2194,-451.33 2194,-451.33 2194,-455.17 2190.17,-459 2186.33,-459"/>
<text text-anchor="middle" x="1977" y="-443.8" font-family="Arial" font-size="14.00" fill="#cfffac">components/Profile/Character/Description/Description.module.css</text>
</g>
<!-- components/Profile/Character/Description/Description.jsx&#45;&gt;components/Profile/Character/Description/Description.module.css -->
<g id="edge62" class="edge">
<title>components/Profile/Character/Description/Description.jsx&#45;&gt;components/Profile/Character/Description/Description.module.css</title>
<path fill="none" stroke="#757575" d="M1693.18,-447.5C1711.75,-447.5 1730.73,-447.5 1749.63,-447.5"/>
<polygon fill="#757575" stroke="#757575" points="1749.81,-451 1759.81,-447.5 1749.81,-444 1749.81,-451"/>
</g>
<!-- components/Profile/ProfileStatus/profileStatus.module.css -->
<g id="node65" class="node">
<title>components/Profile/ProfileStatus/profileStatus.module.css</title>
<path fill="none" stroke="#cfffac" d="M2162.33,-418C2162.33,-418 1791.67,-418 1791.67,-418 1787.83,-418 1784,-414.17 1784,-410.33 1784,-410.33 1784,-402.67 1784,-402.67 1784,-398.83 1787.83,-395 1791.67,-395 1791.67,-395 2162.33,-395 2162.33,-395 2166.17,-395 2170,-398.83 2170,-402.67 2170,-402.67 2170,-410.33 2170,-410.33 2170,-414.17 2166.17,-418 2162.33,-418"/>
<text text-anchor="middle" x="1977" y="-402.8" font-family="Arial" font-size="14.00" fill="#cfffac">components/Profile/ProfileStatus/profileStatus.module.css</text>
</g>
<!-- components/Profile/ProfileStatus/ProfileStatus.jsx&#45;&gt;components/Profile/ProfileStatus/profileStatus.module.css -->
<g id="edge80" class="edge">
<title>components/Profile/ProfileStatus/ProfileStatus.jsx&#45;&gt;components/Profile/ProfileStatus/profileStatus.module.css</title>
<path fill="none" stroke="#757575" d="M1669.73,-406.5C1703.29,-406.5 1738.97,-406.5 1773.66,-406.5"/>
<polygon fill="#757575" stroke="#757575" points="1773.91,-410 1783.91,-406.5 1773.91,-403 1773.91,-410"/>
</g>
<!-- components/Profile/ProfileStatus/ProfileStatusWithHooks.jsx&#45;&gt;components/Profile/ProfileStatus/profileStatus.module.css -->
<g id="edge81" class="edge">
<title>components/Profile/ProfileStatus/ProfileStatusWithHooks.jsx&#45;&gt;components/Profile/ProfileStatus/profileStatus.module.css</title>
<path fill="none" stroke="#757575" d="M1637.14,-377C1698.23,-382.32 1770.9,-388.65 1833.24,-394.07"/>
<polygon fill="#757575" stroke="#757575" points="1833.29,-397.59 1843.56,-394.97 1833.9,-390.62 1833.29,-397.59"/>
</g>
<!-- components/Profile/MyPosts/MyPostForm/MyPostForm.jsx -->
<g id="node56" class="node">
<title>components/Profile/MyPosts/MyPostForm/MyPostForm.jsx</title>
<path fill="none" stroke="#c6c5fe" d="M2163.83,-602C2163.83,-602 1790.17,-602 1790.17,-602 1786.33,-602 1782.5,-598.17 1782.5,-594.33 1782.5,-594.33 1782.5,-586.67 1782.5,-586.67 1782.5,-582.83 1786.33,-579 1790.17,-579 1790.17,-579 2163.83,-579 2163.83,-579 2167.67,-579 2171.5,-582.83 2171.5,-586.67 2171.5,-586.67 2171.5,-594.33 2171.5,-594.33 2171.5,-598.17 2167.67,-602 2163.83,-602"/>
<text text-anchor="middle" x="1977" y="-586.8" font-family="Arial" font-size="14.00" fill="#c6c5fe">components/Profile/MyPosts/MyPostForm/MyPostForm.jsx</text>
</g>
<!-- components/Profile/MyPosts/MyPostForm/MyPostForm.jsx&#45;&gt;components/common/FormControls/FormsControls.js -->
<g id="edge63" class="edge">
<title>components/Profile/MyPosts/MyPostForm/MyPostForm.jsx&#45;&gt;components/common/FormControls/FormsControls.js</title>
<path fill="none" stroke="#757575" d="M2171.56,-598.2C2211.11,-599.78 2252.68,-601.43 2292.04,-603"/>
<polygon fill="#757575" stroke="#757575" points="2292.14,-606.51 2302.27,-603.41 2292.42,-599.51 2292.14,-606.51"/>
</g>
<!-- components/Profile/MyPosts/MyPostForm/MyPostForm.jsx&#45;&gt;utils/validators/validators.js -->
<g id="edge64" class="edge">
<title>components/Profile/MyPosts/MyPostForm/MyPostForm.jsx&#45;&gt;utils/validators/validators.js</title>
<path fill="none" stroke="#757575" d="M2171.56,-582.41C2242.52,-579.45 2319.97,-576.21 2379.57,-573.72"/>
<polygon fill="#757575" stroke="#757575" points="2379.88,-577.21 2389.73,-573.29 2379.59,-570.21 2379.88,-577.21"/>
</g>
<!-- components/Profile/MyPosts/MyPosts.jsx -->
<g id="node57" class="node">
<title>components/Profile/MyPosts/MyPosts.jsx</title>
<path fill="none" stroke="#c6c5fe" d="M1635.33,-664C1635.33,-664 1372.67,-664 1372.67,-664 1368.83,-664 1365,-660.17 1365,-656.33 1365,-656.33 1365,-648.67 1365,-648.67 1365,-644.83 1368.83,-641 1372.67,-641 1372.67,-641 1635.33,-641 1635.33,-641 1639.17,-641 1643,-644.83 1643,-648.67 1643,-648.67 1643,-656.33 1643,-656.33 1643,-660.17 1639.17,-664 1635.33,-664"/>
<text text-anchor="middle" x="1504" y="-648.8" font-family="Arial" font-size="14.00" fill="#c6c5fe">components/Profile/MyPosts/MyPosts.jsx</text>
</g>
<!-- components/Profile/MyPosts/MyPosts.jsx&#45;&gt;components/Profile/MyPosts/MyPostForm/MyPostForm.jsx -->
<g id="edge65" class="edge">
<title>components/Profile/MyPosts/MyPosts.jsx&#45;&gt;components/Profile/MyPosts/MyPostForm/MyPostForm.jsx</title>
<path fill="none" stroke="#757575" d="M1643.09,-645.59C1663.81,-642.36 1684.69,-637.83 1704,-631.5 1721.6,-625.73 1722.34,-616.09 1740,-610.5 1750.54,-607.17 1761.46,-604.31 1772.58,-601.88"/>
<polygon fill="#757575" stroke="#757575" points="1773.31,-605.3 1782.39,-599.84 1771.89,-598.44 1773.31,-605.3"/>
</g>
<!-- components/Profile/MyPosts/MyPosts.module.css -->
<g id="node58" class="node">
<title>components/Profile/MyPosts/MyPosts.module.css</title>
<path fill="none" stroke="#cfffac" d="M2136.83,-643C2136.83,-643 1817.17,-643 1817.17,-643 1813.33,-643 1809.5,-639.17 1809.5,-635.33 1809.5,-635.33 1809.5,-627.67 1809.5,-627.67 1809.5,-623.83 1813.33,-620 1817.17,-620 1817.17,-620 2136.83,-620 2136.83,-620 2140.67,-620 2144.5,-623.83 2144.5,-627.67 2144.5,-627.67 2144.5,-635.33 2144.5,-635.33 2144.5,-639.17 2140.67,-643 2136.83,-643"/>
<text text-anchor="middle" x="1977" y="-627.8" font-family="Arial" font-size="14.00" fill="#cfffac">components/Profile/MyPosts/MyPosts.module.css</text>
</g>
<!-- components/Profile/MyPosts/MyPosts.jsx&#45;&gt;components/Profile/MyPosts/MyPosts.module.css -->
<g id="edge66" class="edge">
<title>components/Profile/MyPosts/MyPosts.jsx&#45;&gt;components/Profile/MyPosts/MyPosts.module.css</title>
<path fill="none" stroke="#757575" d="M1643.13,-646.34C1691.87,-644.17 1747.35,-641.69 1798.86,-639.4"/>
<polygon fill="#757575" stroke="#757575" points="1799.27,-642.88 1809.1,-638.94 1798.96,-635.89 1799.27,-642.88"/>
</g>
<!-- components/Profile/MyPosts/Post/Post.jsx -->
<g id="node59" class="node">
<title>components/Profile/MyPosts/Post/Post.jsx</title>
<path fill="none" stroke="#c6c5fe" d="M2112.33,-725C2112.33,-725 1841.67,-725 1841.67,-725 1837.83,-725 1834,-721.17 1834,-717.33 1834,-717.33 1834,-709.67 1834,-709.67 1834,-705.83 1837.83,-702 1841.67,-702 1841.67,-702 2112.33,-702 2112.33,-702 2116.17,-702 2120,-705.83 2120,-709.67 2120,-709.67 2120,-717.33 2120,-717.33 2120,-721.17 2116.17,-725 2112.33,-725"/>
<text text-anchor="middle" x="1977" y="-709.8" font-family="Arial" font-size="14.00" fill="#c6c5fe">components/Profile/MyPosts/Post/Post.jsx</text>
</g>
<!-- components/Profile/MyPosts/MyPosts.jsx&#45;&gt;components/Profile/MyPosts/Post/Post.jsx -->
<g id="edge67" class="edge">
<title>components/Profile/MyPosts/MyPosts.jsx&#45;&gt;components/Profile/MyPosts/Post/Post.jsx</title>
<path fill="none" stroke="#757575" d="M1564.69,-664.01C1612.07,-672.83 1680.08,-684.75 1740,-692.5 1766.98,-695.99 1795.76,-699.08 1823.63,-701.74"/>
<polygon fill="#757575" stroke="#757575" points="1823.56,-705.25 1833.84,-702.7 1824.22,-698.28 1823.56,-705.25"/>
</g>
<!-- components/Profile/MyPosts/Post/Post.module.css -->
<g id="node61" class="node">
<title>components/Profile/MyPosts/Post/Post.module.css</title>
<path fill="none" stroke="#cfffac" d="M2644.83,-766C2644.83,-766 2318.17,-766 2318.17,-766 2314.33,-766 2310.5,-762.17 2310.5,-758.33 2310.5,-758.33 2310.5,-750.67 2310.5,-750.67 2310.5,-746.83 2314.33,-743 2318.17,-743 2318.17,-743 2644.83,-743 2644.83,-743 2648.67,-743 2652.5,-746.83 2652.5,-750.67 2652.5,-750.67 2652.5,-758.33 2652.5,-758.33 2652.5,-762.17 2648.67,-766 2644.83,-766"/>
<text text-anchor="middle" x="2481.5" y="-750.8" font-family="Arial" font-size="14.00" fill="#cfffac">components/Profile/MyPosts/Post/Post.module.css</text>
</g>
<!-- components/Profile/MyPosts/Post/Post.jsx&#45;&gt;components/Profile/MyPosts/Post/Post.module.css -->
<g id="edge70" class="edge">
<title>components/Profile/MyPosts/Post/Post.jsx&#45;&gt;components/Profile/MyPosts/Post/Post.module.css</title>
<path fill="none" stroke="#757575" d="M2118.98,-725C2184.42,-730.34 2262.32,-736.7 2329.02,-742.14"/>
<polygon fill="#757575" stroke="#757575" points="2328.95,-745.65 2339.2,-742.97 2329.52,-738.67 2328.95,-745.65"/>
</g>
<!-- resources/img/sec&#45;prof.png -->
<g id="node62" class="node">
<title>resources/img/sec&#45;prof.png</title>
<path fill="none" stroke="#cfffac" d="M2569.83,-725C2569.83,-725 2393.17,-725 2393.17,-725 2389.33,-725 2385.5,-721.17 2385.5,-717.33 2385.5,-717.33 2385.5,-709.67 2385.5,-709.67 2385.5,-705.83 2389.33,-702 2393.17,-702 2393.17,-702 2569.83,-702 2569.83,-702 2573.67,-702 2577.5,-705.83 2577.5,-709.67 2577.5,-709.67 2577.5,-717.33 2577.5,-717.33 2577.5,-721.17 2573.67,-725 2569.83,-725"/>
<text text-anchor="middle" x="2481.5" y="-709.8" font-family="Arial" font-size="14.00" fill="#cfffac">resources/img/sec&#45;prof.png</text>
</g>
<!-- components/Profile/MyPosts/Post/Post.jsx&#45;&gt;resources/img/sec&#45;prof.png -->
<g id="edge71" class="edge">
<title>components/Profile/MyPosts/Post/Post.jsx&#45;&gt;resources/img/sec&#45;prof.png</title>
<path fill="none" stroke="#757575" d="M2120.32,-713.5C2201.38,-713.5 2301.22,-713.5 2375.2,-713.5"/>
<polygon fill="#757575" stroke="#757575" points="2375.46,-717 2385.46,-713.5 2375.46,-710 2375.46,-717"/>
</g>
<!-- components/Profile/MyPosts/MyPostsContainer.jsx -->
<g id="node60" class="node">
<title>components/Profile/MyPosts/MyPostsContainer.jsx</title>
<path fill="none" stroke="#c6c5fe" d="M1235.83,-651C1235.83,-651 912.17,-651 912.17,-651 908.33,-651 904.5,-647.17 904.5,-643.33 904.5,-643.33 904.5,-635.67 904.5,-635.67 904.5,-631.83 908.33,-628 912.17,-628 912.17,-628 1235.83,-628 1235.83,-628 1239.67,-628 1243.5,-631.83 1243.5,-635.67 1243.5,-635.67 1243.5,-643.33 1243.5,-643.33 1243.5,-647.17 1239.67,-651 1235.83,-651"/>
<text text-anchor="middle" x="1074" y="-635.8" font-family="Arial" font-size="14.00" fill="#c6c5fe">components/Profile/MyPosts/MyPostsContainer.jsx</text>
</g>
<!-- components/Profile/MyPosts/MyPostsContainer.jsx&#45;&gt;Redux/profileReducer.js -->
<g id="edge68" class="edge">
<title>components/Profile/MyPosts/MyPostsContainer.jsx&#45;&gt;Redux/profileReducer.js</title>
<path fill="none" stroke="#757575" d="M1107.52,-651.05C1184.08,-678.24 1375.64,-746.27 1460.91,-776.55"/>
<polygon fill="#757575" stroke="#757575" points="1459.93,-779.92 1470.53,-779.97 1462.28,-773.32 1459.93,-779.92"/>
</g>
<!-- components/Profile/MyPosts/MyPostsContainer.jsx&#45;&gt;components/Profile/MyPosts/MyPosts.jsx -->
<g id="edge69" class="edge">
<title>components/Profile/MyPosts/MyPostsContainer.jsx&#45;&gt;components/Profile/MyPosts/MyPosts.jsx</title>
<path fill="none" stroke="#757575" d="M1243.54,-644.62C1280.32,-645.74 1318.98,-646.91 1354.89,-648"/>
<polygon fill="#757575" stroke="#757575" points="1354.84,-651.5 1364.94,-648.31 1355.05,-644.5 1354.84,-651.5"/>
</g>
<!-- components/Profile/Profile.jsx&#45;&gt;components/Profile/Character/Character.jsx -->
<g id="edge72" class="edge">
<title>components/Profile/Profile.jsx&#45;&gt;components/Profile/Character/Character.jsx</title>
<path fill="none" stroke="#757575" d="M780.92,-568.21C801.89,-565.34 823.74,-561.81 844,-557.5 910.6,-543.34 985.83,-519.02 1031.31,-503.35"/>
<polygon fill="#757575" stroke="#757575" points="1032.53,-506.64 1040.83,-500.05 1030.23,-500.02 1032.53,-506.64"/>
</g>
<!-- components/Profile/Profile.jsx&#45;&gt;components/Profile/MyPosts/MyPostsContainer.jsx -->
<g id="edge73" class="edge">
<title>components/Profile/Profile.jsx&#45;&gt;components/Profile/MyPosts/MyPostsContainer.jsx</title>
<path fill="none" stroke="#757575" d="M753.17,-590.05C820.13,-600.4 918.31,-615.58 988.2,-626.39"/>
<polygon fill="#757575" stroke="#757575" points="987.89,-629.88 998.3,-627.95 988.96,-622.96 987.89,-629.88"/>
</g>
<!-- components/Profile/Wallpaper/WallPaper.jsx -->
<g id="node64" class="node">
<title>components/Profile/Wallpaper/WallPaper.jsx</title>
<path fill="none" stroke="#c6c5fe" d="M1215.83,-590C1215.83,-590 932.17,-590 932.17,-590 928.33,-590 924.5,-586.17 924.5,-582.33 924.5,-582.33 924.5,-574.67 924.5,-574.67 924.5,-570.83 928.33,-567 932.17,-567 932.17,-567 1215.83,-567 1215.83,-567 1219.67,-567 1223.5,-570.83 1223.5,-574.67 1223.5,-574.67 1223.5,-582.33 1223.5,-582.33 1223.5,-586.17 1219.67,-590 1215.83,-590"/>
<text text-anchor="middle" x="1074" y="-574.8" font-family="Arial" font-size="14.00" fill="#c6c5fe">components/Profile/Wallpaper/WallPaper.jsx</text>
</g>
<!-- components/Profile/Profile.jsx&#45;&gt;components/Profile/Wallpaper/WallPaper.jsx -->
<g id="edge74" class="edge">
<title>components/Profile/Profile.jsx&#45;&gt;components/Profile/Wallpaper/WallPaper.jsx</title>
<path fill="none" stroke="#757575" d="M780.61,-578.5C821.36,-578.5 869.23,-578.5 914.31,-578.5"/>
<polygon fill="#757575" stroke="#757575" points="914.49,-582 924.49,-578.5 914.49,-575 914.49,-582"/>
</g>
<!-- components/Profile/Wallpaper/WallPaper.module.css -->
<g id="node66" class="node">
<title>components/Profile/Wallpaper/WallPaper.module.css</title>
<path fill="none" stroke="#cfffac" d="M1674.33,-582C1674.33,-582 1333.67,-582 1333.67,-582 1329.83,-582 1326,-578.17 1326,-574.33 1326,-574.33 1326,-566.67 1326,-566.67 1326,-562.83 1329.83,-559 1333.67,-559 1333.67,-559 1674.33,-559 1674.33,-559 1678.17,-559 1682,-562.83 1682,-566.67 1682,-566.67 1682,-574.33 1682,-574.33 1682,-578.17 1678.17,-582 1674.33,-582"/>
<text text-anchor="middle" x="1504" y="-566.8" font-family="Arial" font-size="14.00" fill="#cfffac">components/Profile/Wallpaper/WallPaper.module.css</text>
</g>
<!-- components/Profile/Wallpaper/WallPaper.jsx&#45;&gt;components/Profile/Wallpaper/WallPaper.module.css -->
<g id="edge82" class="edge">
<title>components/Profile/Wallpaper/WallPaper.jsx&#45;&gt;components/Profile/Wallpaper/WallPaper.module.css</title>
<path fill="none" stroke="#757575" d="M1223.79,-575.72C1253.39,-575.17 1284.83,-574.58 1315.53,-574"/>
<polygon fill="#757575" stroke="#757575" points="1315.97,-577.5 1325.9,-573.81 1315.84,-570.5 1315.97,-577.5"/>
</g>
<!-- resources/img/red&#45;sun.jpg -->
<g id="node67" class="node">
<title>resources/img/red&#45;sun.jpg</title>
<path fill="none" stroke="#cfffac" d="M1587.33,-623C1587.33,-623 1420.67,-623 1420.67,-623 1416.83,-623 1413,-619.17 1413,-615.33 1413,-615.33 1413,-607.67 1413,-607.67 1413,-603.83 1416.83,-600 1420.67,-600 1420.67,-600 1587.33,-600 1587.33,-600 1591.17,-600 1595,-603.83 1595,-607.67 1595,-607.67 1595,-615.33 1595,-615.33 1595,-619.17 1591.17,-623 1587.33,-623"/>
<text text-anchor="middle" x="1504" y="-607.8" font-family="Arial" font-size="14.00" fill="#cfffac">resources/img/red&#45;sun.jpg</text>
</g>
<!-- components/Profile/Wallpaper/WallPaper.jsx&#45;&gt;resources/img/red&#45;sun.jpg -->
<g id="edge83" class="edge">
<title>components/Profile/Wallpaper/WallPaper.jsx&#45;&gt;resources/img/red&#45;sun.jpg</title>
<path fill="none" stroke="#757575" d="M1223.79,-589.97C1282.97,-594.54 1349.5,-599.66 1402.77,-603.77"/>
<polygon fill="#757575" stroke="#757575" points="1402.66,-607.27 1412.9,-604.55 1403.2,-600.29 1402.66,-607.27"/>
</g>
<!-- components/Users/PageNumber/pageNumber.module.css -->
<g id="node69" class="node">
<title>components/Users/PageNumber/pageNumber.module.css</title>
<path fill="none" stroke="#cfffac" d="M1260.33,-165C1260.33,-165 887.67,-165 887.67,-165 883.83,-165 880,-161.17 880,-157.33 880,-157.33 880,-149.67 880,-149.67 880,-145.83 883.83,-142 887.67,-142 887.67,-142 1260.33,-142 1260.33,-142 1264.17,-142 1268,-145.83 1268,-149.67 1268,-149.67 1268,-157.33 1268,-157.33 1268,-161.17 1264.17,-165 1260.33,-165"/>
<text text-anchor="middle" x="1074" y="-149.8" font-family="Arial" font-size="14.00" fill="#cfffac">components/Users/PageNumber/pageNumber.module.css</text>
</g>
<!-- components/Users/PageNumber/PageNumber.jsx&#45;&gt;components/Users/PageNumber/pageNumber.module.css -->
<g id="edge84" class="edge">
<title>components/Users/PageNumber/PageNumber.jsx&#45;&gt;components/Users/PageNumber/pageNumber.module.css</title>
<path fill="none" stroke="#757575" d="M726.32,-211.91C767.02,-202.33 827.1,-188.82 880,-179.5 907.58,-174.64 937.52,-170.2 965.4,-166.42"/>
<polygon fill="#757575" stroke="#757575" points="966.12,-169.86 975.57,-165.06 965.19,-162.92 966.12,-169.86"/>
</g>
<!-- components/Users/User/User.jsx&#45;&gt;resources/img/main&#45;prof.jpg -->
<g id="edge86" class="edge">
<title>components/Users/User/User.jsx&#45;&gt;resources/img/main&#45;prof.jpg</title>
<path fill="none" stroke="#757575" d="M790.28,-420.26C809.96,-416.2 828.93,-408.62 844,-395.5 890.19,-355.29 835.05,-304.08 880,-262.5 1020.78,-132.28 1113.34,-203.05 1304,-182.5 1503.05,-161.04 1737.05,-159.81 1869.81,-161.33"/>
<polygon fill="#757575" stroke="#757575" points="1869.93,-164.83 1879.97,-161.46 1870.02,-157.84 1869.93,-164.83"/>
</g>
<!-- components/Users/User/user.module.css -->
<g id="node71" class="node">
<title>components/Users/User/user.module.css</title>
<path fill="none" stroke="#cfffac" d="M1205.83,-295C1205.83,-295 942.17,-295 942.17,-295 938.33,-295 934.5,-291.17 934.5,-287.33 934.5,-287.33 934.5,-279.67 934.5,-279.67 934.5,-275.83 938.33,-272 942.17,-272 942.17,-272 1205.83,-272 1205.83,-272 1209.67,-272 1213.5,-275.83 1213.5,-279.67 1213.5,-279.67 1213.5,-287.33 1213.5,-287.33 1213.5,-291.17 1209.67,-295 1205.83,-295"/>
<text text-anchor="middle" x="1074" y="-279.8" font-family="Arial" font-size="14.00" fill="#cfffac">components/Users/User/user.module.css</text>
</g>
<!-- components/Users/User/User.jsx&#45;&gt;components/Users/User/user.module.css -->
<g id="edge85" class="edge">
<title>components/Users/User/User.jsx&#45;&gt;components/Users/User/user.module.css</title>
<path fill="none" stroke="#757575" d="M790.04,-418.75C809.51,-414.76 828.47,-407.61 844,-395.5 878.63,-368.51 845.06,-330.09 880,-303.5 893.1,-293.53 908.23,-286.64 924.13,-282.01"/>
<polygon fill="#757575" stroke="#757575" points="925.33,-285.32 934.13,-279.42 923.57,-278.55 925.33,-285.32"/>
</g>
<!-- index.js -->
<g id="node76" class="node">
<title>index.js</title>
<path fill="none" stroke="#c6c5fe" d="M57.33,-691C57.33,-691 7.67,-691 7.67,-691 3.83,-691 0,-687.17 0,-683.33 0,-683.33 0,-675.67 0,-675.67 0,-671.83 3.83,-668 7.67,-668 7.67,-668 57.33,-668 57.33,-668 61.17,-668 65,-671.83 65,-675.67 65,-675.67 65,-683.33 65,-683.33 65,-687.17 61.17,-691 57.33,-691"/>
<text text-anchor="middle" x="32.5" y="-675.8" font-family="Arial" font-size="14.00" fill="#c6c5fe">index.js</text>
</g>
<!-- index.js&#45;&gt;App.js -->
<g id="edge97" class="edge">
<title>index.js&#45;&gt;App.js</title>
<path fill="none" stroke="#757575" d="M65.13,-672.84C73.35,-671.11 82.27,-669.23 90.76,-667.44"/>
<polygon fill="#757575" stroke="#757575" points="91.76,-670.81 100.83,-665.33 90.32,-663.96 91.76,-670.81"/>
</g>
<!-- index.js&#45;&gt;Redux/redux&#45;store.js -->
<g id="edge98" class="edge">
<title>index.js&#45;&gt;Redux/redux&#45;store.js</title>
<path fill="none" stroke="#757575" d="M44.26,-691.02C68.38,-716.01 129.7,-775.19 194,-802.5 211.48,-809.93 231.18,-814.78 250.14,-817.94"/>
<polygon fill="#757575" stroke="#757575" points="249.86,-821.44 260.27,-819.48 250.92,-814.52 249.86,-821.44"/>
</g>
</g>
</svg>
